<svg width="705" height="689" viewBox="0 0 705 689" fill="none" xmlns="http://www.w3.org/2000/svg">
<path d="M525.66 551.504H178.647L206.044 525.061H498.263L525.66 551.504Z" fill="white" stroke="#263238" stroke-width="0.474259" stroke-linecap="round" stroke-linejoin="round"/>
<path d="M487.103 535.267C487.103 540.668 424.263 545.114 346.699 545.114C269.135 545.114 206.296 540.704 206.296 535.267C206.296 529.831 269.135 525.403 346.699 525.403C424.263 525.403 487.103 529.813 487.103 535.267Z" fill="white"/>
<path opacity="0.5" d="M487.103 535.267C487.103 540.668 424.263 545.114 346.699 545.114C269.135 545.114 206.296 540.704 206.296 535.267C206.296 529.831 269.135 525.403 346.699 525.403C424.263 525.403 487.103 529.813 487.103 535.267Z" fill="white"/>
<path d="M525.66 551.504H178.647V576.003H525.66V551.504Z" fill="#263238" stroke="#263238" stroke-width="0.474259" stroke-linecap="round" stroke-linejoin="round"/>
<path d="M550.213 602.427H154.094L178.647 576.003H525.66L550.213 602.427Z" fill="white" stroke="#263238" stroke-width="0.474259" stroke-linecap="round" stroke-linejoin="round"/>
<path d="M550.141 602.427H154.166V628.204H550.141V602.427Z" fill="#263238" stroke="#263238" stroke-width="0.474259" stroke-linecap="round" stroke-linejoin="round"/>
<path d="M348.319 290.155V125.396H411.015V56.0764" stroke="#263238" stroke-width="0.474259" stroke-miterlimit="10"/>
<path d="M372.818 124.622V56.0764" stroke="#263238" stroke-width="0.474259" stroke-miterlimit="10"/>
<path d="M353 316.417H641.655V275.376H696.827" stroke="#263238" stroke-width="0.474259" stroke-miterlimit="10"/>
<path d="M338.851 314.995H64.3617V271.146H4.94211" stroke="#263238" stroke-width="0.474259" stroke-miterlimit="10"/>
<path d="M292.158 12.2092V74.4729H256.787V114.074H300.654V247.08" stroke="#263238" stroke-width="0.474259" stroke-miterlimit="10"/>
<path d="M486.005 196.138V107H510.054V68.8028H529.872" stroke="#263238" stroke-width="0.474259" stroke-miterlimit="10"/>
<path d="M194.541 187.66V119.744L174.723 99.9256V50.4062" stroke="#263238" stroke-width="0.474259" stroke-miterlimit="10"/>
<path d="M539.773 227.279H589.292V194.734H621.837V176.338H650.134" stroke="#263238" stroke-width="0.474259" stroke-miterlimit="10"/>
<path d="M145.004 238.601H92.6585V197.56H19.0905" stroke="#263238" stroke-width="0.474259" stroke-miterlimit="10"/>
<path d="M193.119 460.727V497.52H169.071V538.562H99.7327" stroke="#263238" stroke-width="0.474259" stroke-miterlimit="10"/>
<path d="M457.708 466.398V504.595H512.88V489.042H528.45V521.569H576.566" stroke="#263238" stroke-width="0.474259" stroke-miterlimit="10"/>
<path d="M415.047 56.0764C415.044 56.8731 414.804 57.6509 414.359 58.3116C413.914 58.9723 413.283 59.4863 412.546 59.7887C411.809 60.0912 410.998 60.1684 410.217 60.0108C409.437 59.8532 408.72 59.4678 408.158 58.9032C407.596 58.3386 407.213 57.6201 407.059 56.8384C406.905 56.0568 406.986 55.247 407.292 54.5113C407.597 53.7755 408.114 53.1469 408.777 52.7046C409.44 52.2623 410.218 52.0263 411.015 52.0263C411.546 52.0263 412.072 52.1312 412.562 52.3349C413.053 52.5387 413.498 52.8373 413.873 53.2136C414.247 53.59 414.544 54.0366 414.745 54.5279C414.947 55.0191 415.05 55.5454 415.047 56.0764Z" fill="#263238" stroke="#263238" stroke-width="0.474259" stroke-linecap="round" stroke-linejoin="round"/>
<path d="M376.994 56.0764C376.991 56.8731 376.751 57.6509 376.306 58.3116C375.861 58.9723 375.23 59.4863 374.493 59.7887C373.756 60.0912 372.945 60.1684 372.164 60.0108C371.384 59.8532 370.667 59.4678 370.105 58.9032C369.543 58.3386 369.16 57.6201 369.006 56.8384C368.852 56.0568 368.933 55.247 369.239 54.5113C369.544 53.7755 370.061 53.1469 370.724 52.7046C371.387 52.2623 372.165 52.0263 372.962 52.0263C373.493 52.0263 374.019 52.1312 374.509 52.3349C375 52.5387 375.445 52.8373 375.82 53.2136C376.194 53.59 376.491 54.0366 376.692 54.5279C376.894 55.0191 376.997 55.5454 376.994 56.0764Z" fill="#263238" stroke="#263238" stroke-width="0.474259" stroke-linecap="round" stroke-linejoin="round"/>
<path d="M296.226 11.0392C296.226 11.841 295.988 12.6248 295.542 13.2912C295.096 13.9576 294.463 14.4767 293.722 14.7827C292.981 15.0887 292.165 15.1679 291.379 15.0101C290.593 14.8524 289.871 14.4648 289.306 13.8966C288.74 13.3284 288.356 12.6051 288.201 11.8182C288.047 11.0314 288.13 10.2165 288.439 9.47677C288.749 8.73703 289.271 8.10575 289.939 7.66289C290.607 7.22003 291.392 6.98552 292.194 6.98908C292.725 6.98908 293.251 7.09397 293.741 7.29773C294.231 7.50148 294.677 7.8001 295.051 8.17642C295.426 8.55275 295.723 8.99936 295.924 9.49064C296.126 9.98192 296.228 10.5082 296.226 11.0392Z" fill="#263238" stroke="#263238" stroke-width="0.474259" stroke-linecap="round" stroke-linejoin="round"/>
<path d="M178.791 48.3722C178.787 49.1689 178.548 49.9467 178.103 50.6074C177.657 51.2681 177.026 51.7821 176.289 52.0845C175.552 52.3869 174.742 52.4642 173.961 52.3066C173.18 52.149 172.463 51.7636 171.901 51.199C171.339 50.6344 170.957 49.9159 170.803 49.1342C170.649 48.3526 170.73 47.5428 171.035 46.807C171.341 46.0713 171.858 45.4426 172.52 45.0004C173.183 44.5581 173.962 44.3221 174.759 44.3221C175.29 44.3221 175.816 44.427 176.306 44.6307C176.796 44.8345 177.242 45.1331 177.616 45.5094C177.991 45.8857 178.288 46.3324 178.489 46.8236C178.691 47.3149 178.793 47.8412 178.791 48.3722Z" fill="#263238" stroke="#263238" stroke-width="0.474259" stroke-linecap="round" stroke-linejoin="round"/>
<path d="M23.1226 197.56C23.1262 198.363 22.8912 199.148 22.4476 199.817C22.0039 200.486 21.3715 201.008 20.6307 201.317C19.89 201.625 19.0741 201.707 18.2868 201.551C17.4995 201.396 16.7762 201.01 16.2087 200.442C15.6412 199.875 15.2551 199.151 15.0994 198.364C14.9437 197.577 15.0254 196.761 15.3342 196.02C15.6429 195.279 16.1649 194.647 16.8336 194.203C17.5024 193.76 18.2879 193.525 19.0905 193.528C20.1599 193.528 21.1855 193.953 21.9416 194.709C22.6978 195.465 23.1226 196.491 23.1226 197.56Z" fill="#263238" stroke="#263238" stroke-width="0.474259" stroke-linecap="round" stroke-linejoin="round"/>
<path d="M9.10022 271.02C9.10022 271.821 8.86268 272.604 8.41765 273.27C7.97262 273.936 7.34009 274.456 6.60003 274.762C5.85996 275.069 5.04562 275.149 4.25998 274.993C3.47433 274.836 2.75267 274.451 2.18625 273.884C1.61983 273.318 1.2341 272.596 1.07782 271.81C0.92155 271.025 1.00175 270.21 1.3083 269.47C1.61484 268.73 2.13395 268.098 2.79999 267.653C3.46603 267.208 4.24908 266.97 5.05011 266.97C6.12427 266.97 7.15443 267.397 7.91397 268.156C8.67351 268.916 9.10022 269.946 9.10022 271.02Z" fill="#263238" stroke="#263238" stroke-width="0.474259" stroke-linecap="round" stroke-linejoin="round"/>
<path d="M104.125 537.787C104.125 538.589 103.887 539.373 103.441 540.039C102.995 540.706 102.362 541.225 101.62 541.531C100.879 541.837 100.064 541.916 99.2779 541.758C98.4918 541.601 97.7702 541.213 97.2045 540.645C96.6388 540.077 96.2545 539.353 96.1002 538.567C95.946 537.78 96.0288 536.965 96.3381 536.225C96.6474 535.485 97.1693 534.854 97.8377 534.411C98.5061 533.968 99.2909 533.734 100.093 533.737C100.624 533.737 101.15 533.842 101.64 534.046C102.13 534.25 102.576 534.548 102.95 534.925C103.325 535.301 103.621 535.748 103.823 536.239C104.025 536.73 104.127 537.256 104.125 537.787Z" fill="#263238" stroke="#263238" stroke-width="0.474259" stroke-linecap="round" stroke-linejoin="round"/>
<path d="M582.65 520.777C582.653 521.579 582.419 522.364 581.976 523.032C581.533 523.7 580.902 524.222 580.162 524.532C579.422 524.841 578.607 524.924 577.821 524.769C577.034 524.615 576.31 524.231 575.742 523.665C575.174 523.1 574.786 522.378 574.629 521.592C574.471 520.806 574.55 519.99 574.856 519.249C575.162 518.508 575.681 517.875 576.348 517.429C577.014 516.983 577.798 516.745 578.6 516.745C579.131 516.743 579.657 516.845 580.148 517.047C580.639 517.248 581.086 517.545 581.462 517.919C581.839 518.294 582.137 518.739 582.341 519.23C582.545 519.72 582.65 520.246 582.65 520.777Z" fill="#263238" stroke="#263238" stroke-width="0.474259" stroke-linecap="round" stroke-linejoin="round"/>
<path d="M702.911 274.584C702.911 275.382 702.675 276.161 702.232 276.824C701.789 277.488 701.159 278.004 700.422 278.31C699.685 278.615 698.875 278.695 698.092 278.539C697.31 278.383 696.592 277.999 696.028 277.436C695.464 276.872 695.08 276.153 694.924 275.371C694.769 274.589 694.849 273.778 695.154 273.041C695.459 272.305 695.976 271.675 696.639 271.232C697.302 270.789 698.081 270.552 698.879 270.552C699.948 270.552 700.974 270.977 701.73 271.733C702.486 272.489 702.911 273.515 702.911 274.584Z" fill="#263238" stroke="#263238" stroke-width="0.474259" stroke-linecap="round" stroke-linejoin="round"/>
<path d="M656.074 175.474C656.074 176.271 655.837 177.051 655.394 177.714C654.951 178.377 654.321 178.894 653.585 179.199C652.848 179.504 652.037 179.584 651.255 179.428C650.473 179.273 649.754 178.889 649.191 178.325C648.627 177.761 648.243 177.042 648.087 176.26C647.931 175.478 648.011 174.667 648.317 173.931C648.622 173.194 649.138 172.564 649.802 172.121C650.465 171.678 651.244 171.442 652.042 171.442C653.111 171.442 654.137 171.866 654.893 172.623C655.649 173.379 656.074 174.404 656.074 175.474Z" fill="#263238" stroke="#263238" stroke-width="0.474259" stroke-linecap="round" stroke-linejoin="round"/>
<path d="M536.515 68.6948C536.515 69.4922 536.278 70.2718 535.835 70.9349C535.392 71.598 534.762 72.1148 534.025 72.4199C533.289 72.7251 532.478 72.805 531.696 72.6494C530.914 72.4938 530.195 72.1098 529.631 71.5459C529.067 70.982 528.683 70.2635 528.528 69.4814C528.372 68.6992 528.452 67.8885 528.757 67.1517C529.062 66.415 529.579 65.7852 530.242 65.3422C530.905 64.8991 531.685 64.6627 532.482 64.6627C533.552 64.6627 534.577 65.0875 535.334 65.8436C536.09 66.5998 536.515 67.6254 536.515 68.6948Z" fill="#263238" stroke="#263238" stroke-width="0.474259" stroke-linecap="round" stroke-linejoin="round"/>
<path d="M401.133 496.386V461.285H295.506V496.386C295.474 507.862 291.509 518.98 284.274 527.887L279.648 533.611H416.955L412.347 527.887C405.112 518.981 401.153 507.861 401.133 496.386Z" fill="white"/>
<mask id="mask0_1_13" style="mask-type:luminance" maskUnits="userSpaceOnUse" x="279" y="461" width="138" height="73">
<path d="M401.133 496.386V461.285H295.506V496.386C295.474 507.862 291.509 518.98 284.274 527.887L279.648 533.611H416.955L412.347 527.887C405.112 518.981 401.153 507.861 401.133 496.386Z" fill="white"/>
</mask>
<g mask="url(#mask0_1_13)">
<path d="M289.026 520.975H407.613C403.37 513.474 401.137 505.004 401.133 496.386V461.285H295.506V496.386C295.502 505.004 293.269 513.474 289.026 520.975Z" fill="white"/>
<path opacity="0.3" d="M289.026 520.975H407.613C403.37 513.474 401.137 505.004 401.133 496.386V461.285H295.506V496.386C295.502 505.004 293.269 513.474 289.026 520.975Z" fill="white"/>
<path d="M289.026 483.966H407.613C403.37 476.465 401.137 467.995 401.133 459.377V424.276H295.506V459.377C295.502 467.995 293.269 476.465 289.026 483.966Z" fill="#263238"/>
</g>
<path d="M401.133 496.386V461.285H295.506V496.386C295.474 507.862 291.509 518.98 284.274 527.887L279.648 533.611H416.955L412.347 527.887C405.112 518.981 401.153 507.861 401.133 496.386Z" stroke="#263238" stroke-width="0.474259" stroke-linecap="round" stroke-linejoin="round"/>
<path d="M545.299 160.659H151.34C142.91 160.659 136.076 167.493 136.076 175.924V457.073C136.076 465.504 142.91 472.338 151.34 472.338H545.299C553.729 472.338 560.563 465.504 560.563 457.073V175.924C560.563 167.493 553.729 160.659 545.299 160.659Z" fill="#263238" stroke="#263238" stroke-width="0.474259" stroke-linecap="round" stroke-linejoin="round"/>
<path d="M136.076 423.898H560.563V457.073C560.563 461.122 558.955 465.004 556.092 467.867C553.23 470.73 549.347 472.338 545.299 472.338H151.34C147.292 472.338 143.409 470.73 140.547 467.867C137.684 465.004 136.076 461.122 136.076 457.073V423.898Z" fill="white" stroke="#263238" stroke-width="0.474259" stroke-linecap="round" stroke-linejoin="round"/>
<path d="M539.197 180.064H157.424V400.264H539.197V180.064Z" fill="white" stroke="#263238" stroke-width="0.474259" stroke-linecap="round" stroke-linejoin="round"/>
<path d="M356.15 455.885C356.182 454.33 355.75 452.801 354.909 451.492C354.069 450.183 352.858 449.154 351.43 448.537C350.002 447.919 348.423 447.741 346.894 448.024C345.364 448.308 343.954 449.041 342.842 450.129C341.731 451.217 340.969 452.612 340.654 454.135C340.338 455.658 340.483 457.241 341.071 458.681C341.659 460.121 342.662 461.354 343.953 462.222C345.244 463.09 346.764 463.553 348.319 463.554C350.374 463.573 352.352 462.776 353.82 461.339C355.288 459.901 356.126 457.94 356.15 455.885Z" fill="#263238" stroke="#263238" stroke-width="0.474259" stroke-linecap="round" stroke-linejoin="round"/>
<path d="M416.991 533.665H279.666V539.93H416.991V533.665Z" fill="white" stroke="#263238" stroke-width="0.474259" stroke-linecap="round" stroke-linejoin="round"/>
<path d="M348.895 168.633C329.707 186.634 280.494 204.634 223.234 242.958C223.234 242.958 226.834 372.561 348.895 443.321V168.633Z" fill="white" stroke="#263238" stroke-width="0.474259" stroke-linecap="round" stroke-linejoin="round"/>
<path d="M348.895 168.633C368.102 186.634 417.297 204.634 474.575 242.958C474.575 242.958 470.975 372.561 348.895 443.321V168.633Z" fill="#263238" stroke="#263238" stroke-width="0.474259" stroke-linecap="round" stroke-linejoin="round"/>
<path d="M348.895 179.668C325.675 195.76 285.552 211.079 232.45 246.612C232.45 246.612 235.78 366.675 348.895 432.305C462.029 366.675 465.359 246.612 465.359 246.612C412.257 211.079 372.26 195.76 348.895 179.668Z" fill="#263238" stroke="#263238" stroke-width="0.474259" stroke-linecap="round" stroke-linejoin="round"/>
<path d="M465.359 246.612C412.257 211.097 372.26 195.76 348.895 179.668V432.305C462.029 366.675 465.359 246.612 465.359 246.612Z" fill="white" stroke="#263238" stroke-width="0.474259" stroke-linecap="round" stroke-linejoin="round"/>
<path d="M561.877 310.171H134.762V337.82H561.877V310.171Z" fill="#263238" stroke="#263238" stroke-width="0.474259" stroke-linecap="round" stroke-linejoin="round"/>
<path d="M143.168 314.563C143.179 315.132 143.02 315.69 142.712 316.168C142.404 316.646 141.961 317.021 141.439 317.246C140.917 317.471 140.34 317.535 139.781 317.431C139.223 317.327 138.708 317.058 138.302 316.66C137.896 316.262 137.618 315.753 137.503 315.196C137.388 314.639 137.442 314.061 137.657 313.535C137.872 313.009 138.238 312.559 138.71 312.242C139.182 311.925 139.737 311.755 140.306 311.755C140.678 311.751 141.048 311.82 141.394 311.958C141.74 312.097 142.055 312.303 142.321 312.564C142.587 312.825 142.799 313.136 142.944 313.479C143.09 313.822 143.166 314.191 143.168 314.563Z" fill="white"/>
<path d="M138.668 316.111C138.981 316.441 139.386 316.669 139.829 316.768C140.273 316.866 140.736 316.83 141.16 316.664C141.583 316.497 141.947 316.209 142.205 315.835C142.463 315.461 142.604 315.018 142.61 314.563C142.604 314.023 142.399 313.504 142.034 313.105C140.845 314.03 139.72 315.034 138.668 316.111Z" fill="#263238"/>
<path d="M154.4 314.563C154.414 315.136 154.258 315.7 153.95 316.183C153.643 316.666 153.198 317.046 152.673 317.275C152.148 317.504 151.567 317.572 151.004 317.469C150.44 317.366 149.92 317.097 149.51 316.698C149.1 316.298 148.819 315.785 148.702 315.224C148.585 314.664 148.637 314.081 148.853 313.551C149.069 313.02 149.438 312.566 149.913 312.246C150.388 311.926 150.947 311.756 151.52 311.755C151.894 311.751 152.264 311.819 152.611 311.958C152.958 312.097 153.274 312.302 153.542 312.563C153.809 312.824 154.023 313.134 154.17 313.478C154.317 313.821 154.395 314.19 154.4 314.563Z" fill="white"/>
<path d="M149.882 316.111C150.195 316.441 150.6 316.669 151.044 316.768C151.488 316.866 151.951 316.83 152.374 316.664C152.797 316.497 153.161 316.209 153.419 315.835C153.678 315.461 153.819 315.018 153.824 314.563C153.818 314.023 153.613 313.504 153.248 313.105C152.063 314.034 150.938 315.038 149.882 316.111Z" fill="#263238"/>
<path d="M165.614 314.563C165.557 315.286 165.23 315.96 164.698 316.451C164.166 316.943 163.468 317.216 162.743 317.216C162.019 317.216 161.321 316.943 160.789 316.451C160.257 315.96 159.93 315.286 159.872 314.563C159.93 313.841 160.257 313.167 160.789 312.676C161.321 312.184 162.019 311.911 162.743 311.911C163.468 311.911 164.166 312.184 164.698 312.676C165.23 313.167 165.557 313.841 165.614 314.563Z" fill="white"/>
<path d="M161.096 316.111C161.311 316.334 161.569 316.51 161.853 316.631C162.138 316.751 162.443 316.813 162.752 316.813C163.05 316.816 163.346 316.76 163.622 316.648C163.898 316.536 164.149 316.371 164.361 316.162C164.574 315.953 164.743 315.704 164.859 315.43C164.975 315.156 165.036 314.861 165.038 314.563C165.039 314.022 164.833 313.5 164.462 313.105C163.277 314.034 162.153 315.038 161.096 316.111Z" fill="#263238"/>
<path d="M176.829 314.563C176.839 315.132 176.681 315.69 176.373 316.168C176.065 316.646 175.622 317.021 175.1 317.246C174.578 317.471 174.001 317.535 173.442 317.431C172.883 317.327 172.368 317.058 171.963 316.66C171.557 316.262 171.279 315.753 171.164 315.196C171.049 314.639 171.103 314.061 171.318 313.535C171.533 313.009 171.899 312.559 172.371 312.242C172.843 311.925 173.398 311.755 173.967 311.755C174.339 311.751 174.709 311.82 175.055 311.958C175.401 312.097 175.716 312.303 175.982 312.564C176.248 312.825 176.46 313.136 176.605 313.479C176.75 313.822 176.826 314.191 176.829 314.563Z" fill="white"/>
<path d="M172.311 316.111C172.627 316.438 173.032 316.664 173.476 316.761C173.92 316.858 174.383 316.822 174.806 316.656C175.23 316.491 175.594 316.204 175.855 315.831C176.116 315.459 176.26 315.018 176.271 314.563C176.265 314.023 176.06 313.504 175.695 313.105C174.5 314.03 173.369 315.034 172.311 316.111Z" fill="#263238"/>
<path d="M188.043 314.563C188.054 315.132 187.895 315.69 187.587 316.168C187.279 316.646 186.836 317.021 186.314 317.246C185.792 317.471 185.215 317.535 184.656 317.431C184.098 317.327 183.583 317.058 183.177 316.66C182.771 316.262 182.493 315.753 182.378 315.196C182.264 314.639 182.317 314.061 182.532 313.535C182.747 313.009 183.114 312.559 183.585 312.242C184.057 311.925 184.613 311.755 185.181 311.755C185.554 311.751 185.923 311.82 186.269 311.958C186.615 312.097 186.93 312.303 187.196 312.564C187.462 312.825 187.674 313.136 187.819 313.479C187.965 313.822 188.041 314.191 188.043 314.563Z" fill="white"/>
<path d="M183.471 316.111C183.686 316.333 183.944 316.509 184.228 316.629C184.513 316.75 184.818 316.812 185.127 316.813C185.426 316.818 185.724 316.764 186.002 316.653C186.28 316.542 186.534 316.378 186.748 316.168C186.962 315.959 187.133 315.71 187.25 315.434C187.367 315.159 187.429 314.863 187.431 314.563C187.425 314.023 187.22 313.504 186.855 313.105C185.664 314.034 184.534 315.038 183.471 316.111Z" fill="#263238"/>
<path d="M199.257 314.563C199.268 315.132 199.109 315.69 198.802 316.168C198.494 316.646 198.05 317.021 197.529 317.246C197.007 317.471 196.43 317.535 195.871 317.431C195.312 317.327 194.797 317.058 194.391 316.66C193.986 316.262 193.708 315.753 193.593 315.196C193.478 314.639 193.531 314.061 193.746 313.535C193.961 313.009 194.328 312.559 194.8 312.242C195.272 311.925 195.827 311.755 196.395 311.755C196.768 311.751 197.138 311.82 197.484 311.958C197.83 312.097 198.145 312.303 198.411 312.564C198.677 312.825 198.888 313.136 199.034 313.479C199.179 313.822 199.255 314.191 199.257 314.563Z" fill="white"/>
<path d="M194.757 316.111C195.071 316.441 195.475 316.669 195.919 316.768C196.363 316.866 196.826 316.83 197.249 316.664C197.672 316.497 198.036 316.209 198.295 315.835C198.553 315.461 198.694 315.018 198.699 314.563C198.693 314.023 198.488 313.504 198.123 313.105C196.934 314.03 195.81 315.034 194.757 316.111Z" fill="#263238"/>
<path d="M210.472 314.563C210.486 315.136 210.329 315.7 210.022 316.183C209.714 316.666 209.269 317.046 208.745 317.275C208.22 317.504 207.639 317.572 207.075 317.469C206.512 317.366 205.992 317.097 205.582 316.698C205.172 316.298 204.89 315.785 204.773 315.224C204.656 314.664 204.709 314.081 204.925 313.551C205.14 313.02 205.509 312.566 205.984 312.246C206.459 311.926 207.019 311.756 207.592 311.755C207.965 311.751 208.336 311.819 208.683 311.958C209.03 312.097 209.346 312.302 209.613 312.563C209.881 312.824 210.094 313.134 210.242 313.478C210.389 313.821 210.467 314.19 210.472 314.563Z" fill="white"/>
<path d="M205.972 316.111C206.285 316.441 206.689 316.669 207.133 316.768C207.577 316.866 208.04 316.83 208.463 316.664C208.887 316.497 209.251 316.209 209.509 315.835C209.767 315.461 209.908 315.018 209.914 314.563C209.908 314.023 209.702 313.504 209.338 313.105C208.152 314.034 207.028 315.038 205.972 316.111Z" fill="#263238"/>
<path d="M221.704 314.563C221.715 315.132 221.556 315.69 221.248 316.168C220.94 316.646 220.497 317.021 219.975 317.246C219.453 317.471 218.876 317.535 218.317 317.431C217.759 317.327 217.244 317.058 216.838 316.66C216.432 316.262 216.154 315.753 216.039 315.196C215.925 314.639 215.978 314.061 216.193 313.535C216.408 313.009 216.775 312.559 217.246 312.242C217.718 311.925 218.274 311.755 218.842 311.755C219.215 311.751 219.584 311.82 219.93 311.958C220.276 312.097 220.591 312.303 220.857 312.564C221.123 312.825 221.335 313.136 221.48 313.479C221.626 313.822 221.702 314.191 221.704 314.563Z" fill="white"/>
<path d="M217.186 316.111C217.401 316.334 217.658 316.51 217.943 316.631C218.227 316.751 218.533 316.813 218.842 316.813C219.14 316.816 219.435 316.76 219.711 316.648C219.987 316.536 220.239 316.371 220.451 316.162C220.663 315.953 220.832 315.704 220.948 315.43C221.065 315.156 221.126 314.861 221.128 314.563C221.129 314.022 220.923 313.5 220.552 313.105C219.367 314.034 218.242 315.038 217.186 316.111Z" fill="#263238"/>
<path d="M232.918 314.563C232.929 315.132 232.77 315.69 232.462 316.168C232.154 316.646 231.711 317.021 231.189 317.246C230.667 317.471 230.09 317.535 229.532 317.431C228.973 317.327 228.458 317.058 228.052 316.66C227.647 316.262 227.369 315.753 227.254 315.196C227.139 314.639 227.192 314.061 227.407 313.535C227.622 313.009 227.989 312.559 228.461 312.242C228.932 311.925 229.488 311.755 230.056 311.755C230.429 311.751 230.799 311.82 231.145 311.958C231.49 312.097 231.805 312.303 232.071 312.564C232.338 312.825 232.549 313.136 232.695 313.479C232.84 313.822 232.916 314.191 232.918 314.563Z" fill="white"/>
<path d="M228.472 316.111C228.788 316.438 229.194 316.664 229.638 316.761C230.082 316.858 230.544 316.822 230.968 316.656C231.391 316.491 231.756 316.204 232.017 315.831C232.277 315.459 232.422 315.018 232.432 314.563C232.426 314.023 232.221 313.504 231.856 313.105C230.665 314.034 229.535 315.038 228.472 316.111Z" fill="#263238"/>
<path d="M244.133 314.563C244.143 315.132 243.985 315.69 243.677 316.168C243.369 316.646 242.926 317.021 242.404 317.246C241.882 317.471 241.305 317.535 240.746 317.431C240.187 317.327 239.672 317.058 239.267 316.66C238.861 316.262 238.583 315.753 238.468 315.196C238.353 314.639 238.407 314.061 238.622 313.535C238.837 313.009 239.203 312.559 239.675 312.242C240.147 311.925 240.702 311.755 241.271 311.755C241.643 311.751 242.013 311.82 242.359 311.958C242.705 312.097 243.02 312.303 243.286 312.564C243.552 312.825 243.764 313.136 243.909 313.479C244.054 313.822 244.13 314.191 244.133 314.563Z" fill="white"/>
<path d="M239.615 316.111C239.83 316.333 240.087 316.509 240.372 316.629C240.656 316.75 240.962 316.812 241.271 316.813C241.57 316.818 241.867 316.764 242.145 316.653C242.424 316.542 242.677 316.378 242.891 316.168C243.105 315.959 243.276 315.71 243.393 315.434C243.511 315.159 243.572 314.863 243.575 314.563C243.569 314.023 243.363 313.504 242.999 313.105C241.808 314.034 240.677 315.038 239.615 316.111Z" fill="#263238"/>
<path d="M255.347 314.563C255.358 315.132 255.199 315.69 254.891 316.168C254.583 316.646 254.14 317.021 253.618 317.246C253.096 317.471 252.519 317.535 251.96 317.431C251.402 317.327 250.887 317.058 250.481 316.66C250.075 316.262 249.797 315.753 249.682 315.196C249.567 314.639 249.621 314.061 249.836 313.535C250.051 313.009 250.418 312.559 250.889 312.242C251.361 311.925 251.917 311.755 252.485 311.755C252.857 311.751 253.227 311.82 253.573 311.958C253.919 312.097 254.234 312.303 254.5 312.564C254.766 312.825 254.978 313.136 255.123 313.479C255.269 313.822 255.345 314.191 255.347 314.563Z" fill="white"/>
<path d="M250.847 316.111C251.16 316.441 251.565 316.669 252.008 316.768C252.452 316.866 252.915 316.83 253.339 316.664C253.762 316.497 254.126 316.209 254.384 315.835C254.642 315.461 254.783 315.018 254.789 314.563C254.783 314.023 254.578 313.504 254.213 313.105C253.028 314.034 251.903 315.038 250.847 316.111Z" fill="#263238"/>
<path d="M266.579 314.563C266.594 315.137 266.436 315.701 266.128 316.185C265.82 316.668 265.374 317.048 264.848 317.277C264.322 317.505 263.74 317.572 263.176 317.467C262.612 317.363 262.092 317.093 261.683 316.691C261.274 316.29 260.994 315.775 260.879 315.213C260.763 314.652 260.819 314.068 261.037 313.538C261.256 313.008 261.627 312.555 262.105 312.237C262.582 311.92 263.144 311.752 263.717 311.755C264.09 311.751 264.46 311.82 264.806 311.958C265.151 312.097 265.466 312.303 265.732 312.564C265.998 312.825 266.21 313.136 266.356 313.479C266.501 313.822 266.577 314.191 266.579 314.563Z" fill="white"/>
<path d="M262.061 316.111C262.374 316.441 262.779 316.669 263.223 316.768C263.667 316.866 264.13 316.83 264.553 316.664C264.976 316.497 265.34 316.209 265.598 315.835C265.857 315.461 265.998 315.018 266.003 314.563C266.004 314.022 265.798 313.5 265.427 313.105C264.242 314.034 263.118 315.038 262.061 316.111Z" fill="#263238"/>
<path d="M277.793 314.563C277.804 315.132 277.646 315.69 277.338 316.168C277.03 316.646 276.587 317.021 276.065 317.246C275.543 317.471 274.966 317.535 274.407 317.431C273.848 317.327 273.333 317.058 272.928 316.66C272.522 316.262 272.244 315.753 272.129 315.196C272.014 314.639 272.067 314.061 272.282 313.535C272.497 313.009 272.864 312.559 273.336 312.242C273.808 311.925 274.363 311.755 274.931 311.755C275.304 311.751 275.674 311.82 276.02 311.958C276.366 312.097 276.681 312.303 276.947 312.564C277.213 312.825 277.424 313.136 277.57 313.479C277.715 313.822 277.791 314.191 277.793 314.563Z" fill="white"/>
<path d="M273.275 316.111C273.591 316.438 273.997 316.664 274.441 316.761C274.885 316.858 275.348 316.822 275.771 316.656C276.194 316.491 276.559 316.204 276.82 315.831C277.08 315.459 277.225 315.018 277.236 314.563C277.229 314.023 277.024 313.504 276.66 313.105C275.465 314.03 274.334 315.034 273.275 316.111Z" fill="#263238"/>
<path d="M289.008 314.563C289.019 315.132 288.86 315.69 288.552 316.168C288.244 316.646 287.801 317.021 287.279 317.246C286.757 317.471 286.18 317.535 285.621 317.431C285.063 317.327 284.548 317.058 284.142 316.66C283.736 316.262 283.458 315.753 283.343 315.196C283.228 314.639 283.282 314.061 283.497 313.535C283.712 313.009 284.078 312.559 284.55 312.242C285.022 311.925 285.577 311.755 286.146 311.755C286.518 311.751 286.888 311.82 287.234 311.958C287.58 312.097 287.895 312.303 288.161 312.564C288.427 312.825 288.639 313.136 288.784 313.479C288.929 313.822 289.005 314.191 289.008 314.563Z" fill="white"/>
<path d="M284.49 316.111C284.705 316.333 284.963 316.509 285.247 316.629C285.531 316.75 285.837 316.812 286.146 316.813C286.445 316.818 286.742 316.764 287.021 316.653C287.299 316.542 287.552 316.378 287.766 316.168C287.981 315.959 288.151 315.71 288.269 315.434C288.386 315.159 288.447 314.863 288.45 314.563C288.444 314.023 288.239 313.504 287.874 313.105C286.683 314.034 285.552 315.038 284.49 316.111Z" fill="#263238"/>
<path d="M143.168 332.402C143.182 332.971 143.027 333.531 142.721 334.011C142.415 334.491 141.973 334.869 141.452 335.097C140.93 335.325 140.353 335.392 139.793 335.29C139.233 335.187 138.716 334.921 138.309 334.523C137.901 334.126 137.621 333.616 137.505 333.059C137.389 332.502 137.441 331.923 137.655 331.396C137.87 330.869 138.236 330.417 138.708 330.1C139.181 329.782 139.737 329.612 140.306 329.612C140.677 329.607 141.045 329.675 141.39 329.813C141.735 329.951 142.049 330.155 142.315 330.414C142.58 330.673 142.793 330.982 142.939 331.323C143.085 331.664 143.163 332.031 143.168 332.402Z" fill="white"/>
<path d="M138.668 333.968C138.879 334.19 139.133 334.367 139.414 334.488C139.696 334.609 139.999 334.671 140.306 334.67C140.606 334.672 140.904 334.616 141.182 334.503C141.46 334.39 141.714 334.224 141.928 334.013C142.142 333.803 142.312 333.552 142.429 333.275C142.546 332.999 142.608 332.702 142.61 332.402C142.599 331.868 142.395 331.356 142.034 330.962C140.845 331.886 139.72 332.89 138.668 333.968Z" fill="#263238"/>
<path d="M154.4 332.402C154.418 332.975 154.265 333.54 153.959 334.026C153.654 334.511 153.21 334.894 152.686 335.126C152.162 335.358 151.58 335.428 151.015 335.327C150.451 335.226 149.929 334.959 149.518 334.56C149.106 334.161 148.822 333.649 148.704 333.088C148.585 332.527 148.637 331.943 148.852 331.412C149.067 330.88 149.436 330.425 149.911 330.104C150.386 329.784 150.947 329.612 151.52 329.612C152.271 329.602 152.996 329.89 153.536 330.413C154.075 330.936 154.386 331.651 154.4 332.402Z" fill="white"/>
<path d="M149.882 333.968C150.093 334.19 150.347 334.367 150.629 334.488C150.91 334.609 151.214 334.671 151.52 334.67C151.82 334.672 152.118 334.616 152.396 334.503C152.675 334.39 152.928 334.224 153.142 334.013C153.356 333.803 153.526 333.552 153.643 333.275C153.76 332.999 153.822 332.702 153.824 332.402C153.814 331.868 153.609 331.356 153.248 330.962C152.063 331.891 150.938 332.895 149.882 333.968Z" fill="#263238"/>
<path d="M165.614 332.402C165.632 332.976 165.478 333.542 165.172 334.028C164.866 334.513 164.422 334.897 163.896 335.128C163.371 335.359 162.788 335.428 162.223 335.326C161.658 335.224 161.137 334.955 160.725 334.554C160.314 334.153 160.032 333.639 159.916 333.077C159.799 332.514 159.853 331.93 160.071 331.399C160.289 330.868 160.661 330.414 161.138 330.095C161.616 329.777 162.178 329.609 162.752 329.612C163.124 329.607 163.492 329.675 163.837 329.813C164.181 329.951 164.496 330.155 164.761 330.414C165.027 330.673 165.239 330.982 165.386 331.323C165.532 331.664 165.61 332.031 165.614 332.402Z" fill="white"/>
<path d="M161.096 333.968C161.411 334.298 161.817 334.527 162.262 334.625C162.708 334.723 163.173 334.685 163.596 334.517C164.02 334.348 164.384 334.057 164.641 333.68C164.898 333.303 165.036 332.858 165.038 332.402C165.037 331.866 164.831 331.351 164.462 330.962C163.277 331.891 162.153 332.895 161.096 333.968Z" fill="#263238"/>
<path d="M176.829 332.402C176.843 332.971 176.687 333.531 176.382 334.011C176.076 334.491 175.634 334.869 175.113 335.097C174.591 335.325 174.014 335.392 173.454 335.29C172.894 335.187 172.377 334.921 171.97 334.523C171.562 334.126 171.282 333.616 171.166 333.059C171.05 332.502 171.102 331.923 171.316 331.396C171.531 330.869 171.897 330.417 172.369 330.1C172.841 329.782 173.398 329.612 173.967 329.612C174.338 329.607 174.706 329.675 175.051 329.813C175.396 329.951 175.71 330.155 175.976 330.414C176.241 330.673 176.454 330.982 176.6 331.323C176.746 331.664 176.824 332.031 176.829 332.402Z" fill="white"/>
<path d="M172.311 333.968C172.628 334.296 173.035 334.522 173.48 334.618C173.926 334.715 174.39 334.677 174.814 334.509C175.238 334.341 175.603 334.052 175.862 333.676C176.122 333.301 176.264 332.858 176.271 332.402C176.26 331.868 176.056 331.356 175.695 330.962C174.5 331.886 173.369 332.89 172.311 333.968Z" fill="#263238"/>
<path d="M188.043 332.402C188.057 332.971 187.902 333.531 187.596 334.011C187.29 334.491 186.849 334.869 186.327 335.097C185.806 335.325 185.228 335.392 184.668 335.29C184.108 335.187 183.592 334.921 183.184 334.523C182.777 334.126 182.497 333.616 182.38 333.059C182.264 332.502 182.316 331.923 182.531 331.396C182.745 330.869 183.112 330.417 183.584 330.1C184.056 329.782 184.612 329.612 185.181 329.612C185.552 329.607 185.921 329.675 186.265 329.813C186.61 329.951 186.924 330.155 187.19 330.414C187.456 330.673 187.668 330.982 187.814 331.323C187.961 331.664 188.038 332.031 188.043 332.402Z" fill="white"/>
<path d="M183.471 333.968C183.686 334.189 183.944 334.365 184.228 334.486C184.513 334.606 184.818 334.669 185.127 334.67C185.427 334.672 185.725 334.616 186.003 334.503C186.281 334.39 186.535 334.224 186.749 334.013C186.963 333.803 187.133 333.552 187.25 333.275C187.367 332.999 187.429 332.702 187.431 332.402C187.421 331.868 187.216 331.356 186.855 330.962C185.664 331.891 184.534 332.895 183.471 333.968Z" fill="#263238"/>
<path d="M199.257 332.402C199.272 332.971 199.116 333.531 198.81 334.011C198.505 334.491 198.063 334.869 197.541 335.097C197.02 335.325 196.442 335.392 195.882 335.29C195.323 335.187 194.806 334.921 194.398 334.523C193.991 334.126 193.711 333.616 193.595 333.059C193.478 332.502 193.531 331.923 193.745 331.396C193.959 330.869 194.326 330.417 194.798 330.1C195.27 329.782 195.826 329.612 196.395 329.612C196.766 329.607 197.135 329.675 197.48 329.813C197.824 329.951 198.138 330.155 198.404 330.414C198.67 330.673 198.882 330.982 199.029 331.323C199.175 331.664 199.253 332.031 199.257 332.402Z" fill="white"/>
<path d="M194.757 333.968C194.968 334.19 195.222 334.367 195.504 334.488C195.785 334.609 196.089 334.671 196.395 334.67C196.695 334.672 196.993 334.616 197.272 334.503C197.55 334.39 197.803 334.224 198.017 334.013C198.231 333.803 198.401 333.552 198.518 333.275C198.636 332.999 198.697 332.702 198.699 332.402C198.689 331.868 198.484 331.356 198.123 330.962C196.934 331.886 195.81 332.89 194.757 333.968Z" fill="#263238"/>
<path d="M210.472 332.402C210.49 332.975 210.336 333.54 210.031 334.026C209.725 334.511 209.282 334.894 208.758 335.126C208.233 335.358 207.651 335.428 207.087 335.327C206.522 335.226 206.001 334.959 205.589 334.56C205.177 334.161 204.894 333.649 204.775 333.088C204.657 332.527 204.708 331.943 204.923 331.412C205.138 330.88 205.507 330.425 205.983 330.104C206.458 329.784 207.018 329.612 207.592 329.612C208.343 329.602 209.067 329.89 209.607 330.413C210.147 330.936 210.458 331.651 210.472 332.402Z" fill="white"/>
<path d="M205.972 333.968C206.182 334.19 206.436 334.367 206.718 334.488C207 334.609 207.303 334.671 207.61 334.67C207.91 334.672 208.208 334.616 208.486 334.503C208.764 334.39 209.017 334.224 209.231 334.013C209.445 333.803 209.616 333.552 209.733 333.275C209.85 332.999 209.911 332.702 209.914 332.402C209.903 331.868 209.698 331.356 209.338 330.962C208.152 331.891 207.028 332.895 205.972 333.968Z" fill="#263238"/>
<path d="M221.704 332.402C221.718 332.971 221.563 333.531 221.257 334.011C220.951 334.491 220.51 334.869 219.988 335.097C219.466 335.325 218.889 335.392 218.329 335.29C217.769 335.187 217.252 334.921 216.845 334.523C216.437 334.126 216.158 333.616 216.041 333.059C215.925 332.502 215.977 331.923 216.192 331.396C216.406 330.869 216.773 330.417 217.245 330.1C217.717 329.782 218.273 329.612 218.842 329.612C219.213 329.607 219.581 329.675 219.926 329.813C220.271 329.951 220.585 330.155 220.851 330.414C221.117 330.673 221.329 330.982 221.475 331.323C221.622 331.664 221.699 332.031 221.704 332.402Z" fill="white"/>
<path d="M217.186 333.968C217.5 334.298 217.906 334.527 218.352 334.625C218.797 334.723 219.262 334.685 219.686 334.517C220.11 334.348 220.474 334.057 220.731 333.68C220.988 333.303 221.126 332.858 221.128 332.402C221.126 331.866 220.92 331.351 220.552 330.962C219.367 331.891 218.242 332.895 217.186 333.968Z" fill="#263238"/>
<path d="M232.918 332.402C232.933 332.971 232.777 333.531 232.471 334.011C232.166 334.491 231.724 334.869 231.202 335.097C230.681 335.325 230.103 335.392 229.543 335.29C228.983 335.187 228.467 334.921 228.059 334.523C227.652 334.126 227.372 333.616 227.256 333.059C227.139 332.502 227.191 331.923 227.406 331.396C227.62 330.869 227.987 330.417 228.459 330.1C228.931 329.782 229.487 329.612 230.056 329.612C230.427 329.607 230.796 329.675 231.14 329.813C231.485 329.951 231.799 330.155 232.065 330.414C232.331 330.673 232.543 330.982 232.689 331.323C232.836 331.664 232.914 332.031 232.918 332.402Z" fill="white"/>
<path d="M228.472 333.968C228.789 334.296 229.196 334.522 229.642 334.618C230.088 334.715 230.552 334.677 230.976 334.509C231.4 334.341 231.765 334.052 232.024 333.676C232.283 333.301 232.425 332.858 232.432 332.402C232.422 331.868 232.217 331.356 231.856 330.962C230.665 331.891 229.535 332.895 228.472 333.968Z" fill="#263238"/>
<path d="M244.133 332.402C244.147 332.971 243.991 333.531 243.686 334.011C243.38 334.491 242.938 334.869 242.417 335.097C241.895 335.325 241.317 335.392 240.758 335.29C240.198 335.187 239.681 334.921 239.274 334.523C238.866 334.126 238.586 333.616 238.47 333.059C238.353 332.502 238.406 331.923 238.62 331.396C238.834 330.869 239.201 330.417 239.673 330.1C240.145 329.782 240.701 329.612 241.271 329.612C241.642 329.607 242.01 329.675 242.355 329.813C242.7 329.951 243.014 330.155 243.28 330.414C243.545 330.673 243.757 330.982 243.904 331.323C244.05 331.664 244.128 332.031 244.133 332.402Z" fill="white"/>
<path d="M239.615 333.968C239.83 334.189 240.087 334.365 240.372 334.486C240.656 334.606 240.962 334.669 241.271 334.67C241.571 334.672 241.868 334.616 242.147 334.503C242.425 334.39 242.678 334.224 242.892 334.013C243.106 333.803 243.277 333.552 243.394 333.275C243.511 332.999 243.572 332.702 243.575 332.402C243.564 331.868 243.359 331.356 242.999 330.962C241.808 331.891 240.677 332.895 239.615 333.968Z" fill="#263238"/>
<path d="M255.347 332.402C255.361 332.971 255.206 333.531 254.9 334.011C254.594 334.491 254.152 334.869 253.631 335.097C253.109 335.325 252.532 335.392 251.972 335.29C251.412 335.187 250.895 334.921 250.488 334.523C250.08 334.126 249.801 333.616 249.684 333.059C249.568 332.502 249.62 331.923 249.834 331.396C250.049 330.869 250.415 330.417 250.888 330.1C251.36 329.782 251.916 329.612 252.485 329.612C252.856 329.607 253.224 329.675 253.569 329.813C253.914 329.951 254.228 330.155 254.494 330.414C254.76 330.673 254.972 330.982 255.118 331.323C255.264 331.664 255.342 332.031 255.347 332.402Z" fill="white"/>
<path d="M250.847 333.968C251.058 334.19 251.312 334.367 251.593 334.488C251.875 334.609 252.178 334.671 252.485 334.67C252.785 334.672 253.083 334.616 253.361 334.503C253.639 334.39 253.893 334.224 254.107 334.013C254.321 333.803 254.491 333.552 254.608 333.275C254.725 332.999 254.787 332.702 254.789 332.402C254.778 331.868 254.574 331.356 254.213 330.962C253.028 331.891 251.903 332.895 250.847 333.968Z" fill="#263238"/>
<path d="M266.579 332.402C266.597 332.976 266.443 333.542 266.137 334.028C265.831 334.513 265.386 334.897 264.861 335.128C264.335 335.359 263.753 335.428 263.188 335.326C262.623 335.224 262.101 334.955 261.69 334.554C261.279 334.153 260.997 333.639 260.88 333.077C260.764 332.514 260.818 331.93 261.036 331.399C261.254 330.868 261.625 330.414 262.103 330.095C262.581 329.777 263.143 329.609 263.717 329.612C264.088 329.607 264.457 329.675 264.801 329.813C265.146 329.951 265.46 330.155 265.726 330.414C265.992 330.673 266.204 330.982 266.35 331.323C266.497 331.664 266.575 332.031 266.579 332.402Z" fill="white"/>
<path d="M262.061 333.968C262.376 334.298 262.782 334.527 263.227 334.625C263.673 334.723 264.137 334.685 264.561 334.517C264.985 334.348 265.349 334.057 265.606 333.68C265.863 333.303 266.001 332.858 266.003 332.402C266.001 331.866 265.795 331.351 265.427 330.962C264.242 331.891 263.118 332.895 262.061 333.968Z" fill="#263238"/>
<path d="M277.794 332.402C277.808 332.971 277.652 333.531 277.347 334.011C277.041 334.491 276.599 334.869 276.078 335.097C275.556 335.325 274.978 335.392 274.419 335.29C273.859 335.187 273.342 334.921 272.935 334.523C272.527 334.126 272.247 333.616 272.131 333.059C272.014 332.502 272.067 331.923 272.281 331.396C272.495 330.869 272.862 330.417 273.334 330.1C273.806 329.782 274.362 329.612 274.931 329.612C275.303 329.607 275.671 329.675 276.016 329.813C276.36 329.951 276.675 330.155 276.94 330.414C277.206 330.673 277.418 330.982 277.565 331.323C277.711 331.664 277.789 332.031 277.794 332.402Z" fill="white"/>
<path d="M273.275 333.968C273.592 334.296 273.999 334.522 274.445 334.618C274.891 334.715 275.355 334.677 275.779 334.509C276.203 334.341 276.568 334.052 276.827 333.676C277.086 333.301 277.228 332.858 277.236 332.402C277.225 331.868 277.02 331.356 276.66 330.962C275.465 331.886 274.334 332.89 273.275 333.968Z" fill="#263238"/>
<path d="M289.008 332.402C289.022 332.971 288.866 333.531 288.561 334.011C288.255 334.491 287.813 334.869 287.292 335.097C286.77 335.325 286.193 335.392 285.633 335.29C285.073 335.187 284.556 334.921 284.149 334.523C283.741 334.126 283.461 333.616 283.345 333.059C283.229 332.502 283.281 331.923 283.495 331.396C283.71 330.869 284.076 330.417 284.548 330.1C285.021 329.782 285.577 329.612 286.146 329.612C286.517 329.607 286.885 329.675 287.23 329.813C287.575 329.951 287.889 330.155 288.155 330.414C288.42 330.673 288.633 330.982 288.779 331.323C288.925 331.664 289.003 332.031 289.008 332.402Z" fill="white"/>
<path d="M284.49 333.968C284.705 334.189 284.963 334.365 285.247 334.486C285.531 334.606 285.837 334.669 286.146 334.67C286.446 334.672 286.744 334.616 287.022 334.503C287.3 334.39 287.554 334.224 287.768 334.013C287.981 333.803 288.152 333.552 288.269 333.275C288.386 332.999 288.447 332.702 288.45 332.402C288.439 331.868 288.235 331.356 287.874 330.962C286.683 331.891 285.552 332.895 284.49 333.968Z" fill="#263238"/>
<path d="M413.301 314.563C413.312 315.132 413.153 315.69 412.845 316.168C412.537 316.646 412.094 317.021 411.572 317.246C411.05 317.471 410.473 317.535 409.915 317.431C409.356 317.327 408.841 317.058 408.435 316.66C408.029 316.262 407.751 315.753 407.637 315.196C407.522 314.639 407.575 314.061 407.79 313.535C408.005 313.009 408.372 312.559 408.844 312.242C409.315 311.925 409.871 311.755 410.439 311.755C410.812 311.751 411.182 311.82 411.527 311.958C411.873 312.097 412.188 312.303 412.454 312.564C412.72 312.825 412.932 313.136 413.077 313.479C413.223 313.822 413.299 314.191 413.301 314.563Z" fill="white"/>
<path d="M408.801 316.111C409.114 316.441 409.519 316.669 409.963 316.768C410.407 316.866 410.87 316.83 411.293 316.664C411.716 316.497 412.08 316.209 412.338 315.835C412.597 315.461 412.738 315.018 412.743 314.563C412.737 314.023 412.532 313.504 412.167 313.105C410.982 314.034 409.857 315.038 408.801 316.111Z" fill="#263238"/>
<path d="M424.533 314.563C424.548 315.137 424.391 315.701 424.082 316.185C423.774 316.668 423.328 317.048 422.802 317.277C422.276 317.505 421.694 317.572 421.13 317.467C420.566 317.363 420.047 317.093 419.637 316.691C419.228 316.29 418.948 315.775 418.833 315.213C418.718 314.652 418.773 314.068 418.991 313.538C419.21 313.008 419.582 312.555 420.059 312.237C420.537 311.92 421.098 311.752 421.671 311.755C422.044 311.751 422.414 311.82 422.76 311.958C423.106 312.097 423.421 312.303 423.687 312.564C423.953 312.825 424.164 313.136 424.31 313.479C424.455 313.822 424.531 314.191 424.533 314.563Z" fill="white"/>
<path d="M420.015 316.111C420.329 316.441 420.733 316.669 421.177 316.768C421.621 316.866 422.084 316.83 422.507 316.664C422.93 316.497 423.294 316.209 423.553 315.835C423.811 315.461 423.952 315.018 423.957 314.563C423.958 314.022 423.752 313.5 423.381 313.105C422.196 314.034 421.072 315.038 420.015 316.111Z" fill="#263238"/>
<path d="M435.748 314.563C435.759 315.132 435.6 315.69 435.292 316.168C434.984 316.646 434.541 317.021 434.019 317.246C433.497 317.471 432.92 317.535 432.361 317.431C431.803 317.327 431.288 317.058 430.882 316.66C430.476 316.262 430.198 315.753 430.083 315.196C429.968 314.639 430.022 314.061 430.237 313.535C430.452 313.009 430.818 312.559 431.29 312.242C431.762 311.925 432.317 311.755 432.886 311.755C433.258 311.751 433.628 311.82 433.974 311.958C434.32 312.097 434.635 312.303 434.901 312.564C435.167 312.825 435.379 313.136 435.524 313.479C435.669 313.822 435.745 314.191 435.748 314.563Z" fill="white"/>
<path d="M431.23 316.111C431.546 316.438 431.951 316.664 432.395 316.761C432.839 316.858 433.302 316.822 433.725 316.656C434.149 316.491 434.513 316.204 434.774 315.831C435.035 315.459 435.179 315.018 435.19 314.563C435.184 314.023 434.979 313.504 434.614 313.105C433.419 314.03 432.288 315.034 431.23 316.111Z" fill="#263238"/>
<path d="M446.962 314.563C446.973 315.132 446.814 315.69 446.506 316.168C446.198 316.646 445.755 317.021 445.233 317.246C444.711 317.471 444.134 317.535 443.576 317.431C443.017 317.327 442.502 317.058 442.096 316.66C441.69 316.262 441.412 315.753 441.298 315.196C441.183 314.639 441.236 314.061 441.451 313.535C441.666 313.009 442.033 312.559 442.504 312.242C442.976 311.925 443.532 311.755 444.1 311.755C444.473 311.751 444.843 311.82 445.188 311.958C445.534 312.097 445.849 312.303 446.115 312.564C446.381 312.825 446.593 313.136 446.738 313.479C446.884 313.822 446.96 314.191 446.962 314.563Z" fill="white"/>
<path d="M442.444 316.111C442.659 316.333 442.917 316.509 443.201 316.629C443.486 316.75 443.791 316.812 444.1 316.813C444.399 316.818 444.697 316.764 444.975 316.653C445.253 316.542 445.507 316.378 445.721 316.168C445.935 315.959 446.106 315.71 446.223 315.434C446.34 315.159 446.402 314.863 446.404 314.563C446.398 314.023 446.193 313.504 445.828 313.105C444.637 314.034 443.507 315.038 442.444 316.111Z" fill="#263238"/>
<path d="M458.176 314.563C458.187 315.132 458.028 315.69 457.721 316.168C457.413 316.646 456.969 317.021 456.448 317.246C455.926 317.471 455.349 317.535 454.79 317.431C454.231 317.327 453.716 317.058 453.31 316.66C452.905 316.262 452.627 315.753 452.512 315.196C452.397 314.639 452.45 314.061 452.665 313.535C452.88 313.009 453.247 312.559 453.719 312.242C454.191 311.925 454.746 311.755 455.314 311.755C455.687 311.751 456.057 311.82 456.403 311.958C456.749 312.097 457.064 312.303 457.33 312.564C457.596 312.825 457.807 313.136 457.953 313.479C458.098 313.822 458.174 314.191 458.176 314.563Z" fill="white"/>
<path d="M453.676 316.111C453.99 316.441 454.394 316.669 454.838 316.768C455.282 316.866 455.745 316.83 456.168 316.664C456.591 316.497 456.955 316.209 457.214 315.835C457.472 315.461 457.613 315.018 457.618 314.563C457.612 314.023 457.407 313.504 457.042 313.105C455.853 314.03 454.729 315.034 453.676 316.111Z" fill="#263238"/>
<path d="M469.409 314.563C469.423 315.136 469.266 315.7 468.959 316.183C468.651 316.666 468.206 317.046 467.682 317.275C467.157 317.504 466.576 317.572 466.012 317.469C465.449 317.366 464.929 317.097 464.519 316.698C464.109 316.298 463.827 315.785 463.71 315.224C463.593 314.664 463.646 314.081 463.862 313.551C464.077 313.02 464.446 312.566 464.921 312.246C465.396 311.926 465.956 311.756 466.529 311.755C466.902 311.751 467.273 311.819 467.62 311.958C467.967 312.097 468.283 312.302 468.55 312.563C468.818 312.824 469.031 313.134 469.178 313.478C469.326 313.821 469.404 314.19 469.409 314.563Z" fill="white"/>
<path d="M464.891 316.111C465.204 316.441 465.608 316.669 466.052 316.768C466.496 316.866 466.959 316.83 467.382 316.664C467.806 316.497 468.17 316.209 468.428 315.835C468.686 315.461 468.827 315.018 468.833 314.563C468.827 314.023 468.621 313.504 468.257 313.105C467.071 314.034 465.947 315.038 464.891 316.111Z" fill="#263238"/>
<path d="M480.623 314.563C480.637 315.137 480.48 315.701 480.172 316.185C479.863 316.668 479.418 317.048 478.892 317.277C478.366 317.505 477.784 317.572 477.22 317.467C476.656 317.363 476.136 317.093 475.727 316.691C475.318 316.29 475.037 315.775 474.922 315.213C474.807 314.652 474.863 314.068 475.081 313.538C475.3 313.008 475.671 312.555 476.149 312.237C476.626 311.92 477.188 311.752 477.761 311.755C478.134 311.751 478.503 311.82 478.849 311.958C479.195 312.097 479.51 312.303 479.776 312.564C480.042 312.825 480.254 313.136 480.399 313.479C480.545 313.822 480.621 314.191 480.623 314.563Z" fill="white"/>
<path d="M476.105 316.111C476.418 316.441 476.823 316.669 477.267 316.768C477.71 316.866 478.174 316.83 478.597 316.664C479.02 316.497 479.384 316.209 479.642 315.835C479.901 315.461 480.041 315.018 480.047 314.563C480.048 314.022 479.842 313.5 479.471 313.105C478.286 314.034 477.161 315.038 476.105 316.111Z" fill="#263238"/>
<path d="M491.837 314.563C491.848 315.132 491.689 315.69 491.381 316.168C491.073 316.646 490.63 317.021 490.108 317.246C489.586 317.471 489.009 317.535 488.451 317.431C487.892 317.327 487.377 317.058 486.971 316.66C486.566 316.262 486.288 315.753 486.173 315.196C486.058 314.639 486.111 314.061 486.326 313.535C486.541 313.009 486.908 312.559 487.38 312.242C487.851 311.925 488.407 311.755 488.975 311.755C489.348 311.751 489.718 311.82 490.064 311.958C490.409 312.097 490.724 312.303 490.99 312.564C491.256 312.825 491.468 313.136 491.614 313.479C491.759 313.822 491.835 314.191 491.837 314.563Z" fill="white"/>
<path d="M487.319 316.111C487.635 316.438 488.041 316.664 488.485 316.761C488.929 316.858 489.391 316.822 489.815 316.656C490.238 316.491 490.603 316.204 490.863 315.831C491.124 315.459 491.269 315.018 491.279 314.563C491.273 314.023 491.068 313.504 490.703 313.105C489.508 314.03 488.378 315.034 487.319 316.111Z" fill="#263238"/>
<path d="M503.052 314.563C503.062 315.132 502.904 315.69 502.596 316.168C502.288 316.646 501.845 317.021 501.323 317.246C500.801 317.471 500.224 317.535 499.665 317.431C499.106 317.327 498.591 317.058 498.186 316.66C497.78 316.262 497.502 315.753 497.387 315.196C497.272 314.639 497.326 314.061 497.541 313.535C497.756 313.009 498.122 312.559 498.594 312.242C499.066 311.925 499.621 311.755 500.19 311.755C500.562 311.751 500.932 311.82 501.278 311.958C501.624 312.097 501.939 312.303 502.205 312.564C502.471 312.825 502.683 313.136 502.828 313.479C502.973 313.822 503.049 314.191 503.052 314.563Z" fill="white"/>
<path d="M498.479 316.111C498.695 316.333 498.952 316.509 499.237 316.629C499.521 316.75 499.827 316.812 500.136 316.813C500.435 316.818 500.732 316.764 501.01 316.653C501.289 316.542 501.542 316.378 501.756 316.168C501.97 315.959 502.141 315.71 502.258 315.434C502.376 315.159 502.437 314.863 502.44 314.563C502.434 314.023 502.228 313.504 501.864 313.105C500.673 314.034 499.542 315.038 498.479 316.111Z" fill="#263238"/>
<path d="M514.266 314.563C514.277 315.132 514.118 315.69 513.81 316.168C513.502 316.646 513.059 317.021 512.537 317.246C512.015 317.471 511.438 317.535 510.879 317.431C510.321 317.327 509.806 317.058 509.4 316.66C508.994 316.262 508.716 315.753 508.601 315.196C508.486 314.639 508.54 314.061 508.755 313.535C508.97 313.009 509.336 312.559 509.808 312.242C510.28 311.925 510.835 311.755 511.404 311.755C511.776 311.751 512.146 311.82 512.492 311.958C512.838 312.097 513.153 312.303 513.419 312.564C513.685 312.825 513.897 313.136 514.042 313.479C514.188 313.822 514.264 314.191 514.266 314.563Z" fill="white"/>
<path d="M509.766 316.111C510.079 316.441 510.484 316.669 510.927 316.768C511.371 316.866 511.834 316.83 512.258 316.664C512.681 316.497 513.045 316.209 513.303 315.835C513.561 315.461 513.702 315.018 513.708 314.563C513.702 314.023 513.497 313.504 513.132 313.105C511.943 314.03 510.818 315.034 509.766 316.111Z" fill="#263238"/>
<path d="M525.48 314.563C525.495 315.136 525.338 315.7 525.03 316.183C524.723 316.666 524.278 317.046 523.753 317.275C523.228 317.504 522.647 317.572 522.084 317.469C521.52 317.366 521 317.097 520.59 316.698C520.18 316.298 519.899 315.785 519.782 315.224C519.665 314.664 519.717 314.081 519.933 313.551C520.149 313.02 520.518 312.566 520.993 312.246C521.468 311.926 522.027 311.756 522.6 311.755C522.974 311.751 523.344 311.819 523.691 311.958C524.038 312.097 524.354 312.302 524.622 312.563C524.889 312.824 525.103 313.134 525.25 313.478C525.397 313.821 525.476 314.19 525.48 314.563Z" fill="white"/>
<path d="M520.98 316.111C521.293 316.441 521.698 316.669 522.142 316.768C522.586 316.866 523.049 316.83 523.472 316.664C523.895 316.497 524.259 316.209 524.517 315.835C524.776 315.461 524.917 315.018 524.922 314.563C524.916 314.023 524.711 313.504 524.346 313.105C523.161 314.034 522.037 315.038 520.98 316.111Z" fill="#263238"/>
<path d="M536.712 314.563C536.723 315.132 536.565 315.69 536.257 316.168C535.949 316.646 535.506 317.021 534.984 317.246C534.462 317.471 533.885 317.535 533.326 317.431C532.767 317.327 532.252 317.058 531.846 316.66C531.441 316.262 531.163 315.753 531.048 315.196C530.933 314.639 530.986 314.061 531.201 313.535C531.416 313.009 531.783 312.559 532.255 312.242C532.727 311.925 533.282 311.755 533.85 311.755C534.223 311.751 534.593 311.82 534.939 311.958C535.285 312.097 535.6 312.303 535.866 312.564C536.132 312.825 536.343 313.136 536.489 313.479C536.634 313.822 536.71 314.191 536.712 314.563Z" fill="white"/>
<path d="M532.194 316.111C532.409 316.334 532.667 316.51 532.951 316.631C533.236 316.751 533.541 316.813 533.85 316.813C534.148 316.816 534.444 316.76 534.72 316.648C534.996 316.536 535.247 316.371 535.459 316.162C535.672 315.953 535.841 315.704 535.957 315.43C536.073 315.156 536.134 314.861 536.137 314.563C536.137 314.022 535.931 313.5 535.56 313.105C534.375 314.034 533.251 315.038 532.194 316.111Z" fill="#263238"/>
<path d="M547.927 314.563C547.938 315.132 547.779 315.69 547.471 316.168C547.163 316.646 546.72 317.021 546.198 317.246C545.676 317.471 545.099 317.535 544.54 317.431C543.982 317.327 543.467 317.058 543.061 316.66C542.655 316.262 542.377 315.753 542.262 315.196C542.147 314.639 542.201 314.061 542.416 313.535C542.631 313.009 542.997 312.559 543.469 312.242C543.941 311.925 544.496 311.755 545.065 311.755C545.437 311.751 545.807 311.82 546.153 311.958C546.499 312.097 546.814 312.303 547.08 312.564C547.346 312.825 547.558 313.136 547.703 313.479C547.848 313.822 547.925 314.191 547.927 314.563Z" fill="white"/>
<path d="M543.481 316.111C543.797 316.438 544.202 316.664 544.646 316.761C545.09 316.858 545.553 316.822 545.976 316.656C546.4 316.491 546.764 316.204 547.025 315.831C547.286 315.459 547.43 315.018 547.441 314.563C547.435 314.023 547.23 313.504 546.865 313.105C545.674 314.034 544.544 315.038 543.481 316.111Z" fill="#263238"/>
<path d="M559.141 314.563C559.152 315.132 558.993 315.69 558.685 316.168C558.377 316.646 557.934 317.021 557.412 317.246C556.89 317.471 556.313 317.535 555.754 317.431C555.196 317.327 554.681 317.058 554.275 316.66C553.869 316.262 553.591 315.753 553.477 315.196C553.362 314.639 553.415 314.061 553.63 313.535C553.845 313.009 554.212 312.559 554.683 312.242C555.155 311.925 555.711 311.755 556.279 311.755C556.652 311.751 557.022 311.82 557.367 311.958C557.713 312.097 558.028 312.303 558.294 312.564C558.56 312.825 558.772 313.136 558.917 313.479C559.063 313.822 559.139 314.191 559.141 314.563Z" fill="white"/>
<path d="M554.623 316.111C554.838 316.333 555.096 316.509 555.38 316.629C555.665 316.75 555.97 316.812 556.279 316.813C556.578 316.818 556.876 316.764 557.154 316.653C557.432 316.542 557.686 316.378 557.9 316.168C558.114 315.959 558.285 315.71 558.402 315.434C558.519 315.159 558.581 314.863 558.583 314.563C558.577 314.023 558.372 313.504 558.007 313.105C556.816 314.034 555.686 315.038 554.623 316.111Z" fill="#263238"/>
<path d="M413.301 332.402C413.315 332.971 413.16 333.531 412.854 334.011C412.549 334.491 412.107 334.869 411.585 335.097C411.064 335.325 410.486 335.392 409.926 335.29C409.366 335.187 408.85 334.921 408.442 334.523C408.035 334.126 407.755 333.616 407.638 333.059C407.522 332.502 407.574 331.923 407.789 331.396C408.003 330.869 408.37 330.417 408.842 330.1C409.314 329.782 409.87 329.612 410.439 329.612C410.81 329.607 411.179 329.675 411.523 329.813C411.868 329.951 412.182 330.155 412.448 330.414C412.714 330.673 412.926 330.982 413.072 331.323C413.219 331.664 413.296 332.031 413.301 332.402Z" fill="white"/>
<path d="M408.801 333.968C409.012 334.19 409.266 334.367 409.548 334.488C409.829 334.609 410.133 334.671 410.439 334.67C410.739 334.672 411.037 334.616 411.315 334.503C411.594 334.39 411.847 334.224 412.061 334.013C412.275 333.803 412.445 333.552 412.562 333.275C412.679 332.999 412.741 332.702 412.743 332.402C412.733 331.868 412.528 331.356 412.167 330.962C410.982 331.891 409.857 332.895 408.801 333.968Z" fill="#263238"/>
<path d="M424.534 332.402C424.551 332.976 424.397 333.542 424.091 334.028C423.785 334.513 423.341 334.897 422.815 335.128C422.29 335.359 421.707 335.428 421.142 335.326C420.577 335.224 420.056 334.955 419.644 334.554C419.233 334.153 418.951 333.639 418.835 333.077C418.718 332.514 418.772 331.93 418.99 331.399C419.208 330.868 419.58 330.414 420.057 330.095C420.535 329.777 421.097 329.609 421.671 329.612C422.043 329.607 422.411 329.675 422.756 329.813C423.1 329.951 423.415 330.155 423.68 330.414C423.946 330.673 424.158 330.982 424.305 331.323C424.451 331.664 424.529 332.031 424.534 332.402Z" fill="white"/>
<path d="M420.015 333.968C420.33 334.298 420.736 334.527 421.181 334.625C421.627 334.723 422.092 334.685 422.515 334.517C422.939 334.348 423.303 334.057 423.56 333.68C423.817 333.303 423.956 332.858 423.957 332.402C423.956 331.866 423.75 331.351 423.381 330.962C422.196 331.891 421.072 332.895 420.015 333.968Z" fill="#263238"/>
<path d="M435.748 332.402C435.762 332.971 435.606 333.531 435.301 334.011C434.995 334.491 434.553 334.869 434.032 335.097C433.51 335.325 432.933 335.392 432.373 335.29C431.813 335.187 431.296 334.921 430.889 334.523C430.481 334.126 430.201 333.616 430.085 333.059C429.969 332.502 430.021 331.923 430.235 331.396C430.45 330.869 430.816 330.417 431.288 330.1C431.761 329.782 432.317 329.612 432.886 329.612C433.257 329.607 433.625 329.675 433.97 329.813C434.315 329.951 434.629 330.155 434.895 330.414C435.16 330.673 435.373 330.982 435.519 331.323C435.665 331.664 435.743 332.031 435.748 332.402Z" fill="white"/>
<path d="M431.23 333.968C431.547 334.296 431.954 334.522 432.399 334.618C432.845 334.715 433.309 334.677 433.733 334.509C434.157 334.341 434.522 334.052 434.781 333.676C435.041 333.301 435.183 332.858 435.19 332.402C435.179 331.868 434.975 331.356 434.614 330.962C433.419 331.886 432.288 332.89 431.23 333.968Z" fill="#263238"/>
<path d="M446.962 332.402C446.976 332.971 446.821 333.531 446.515 334.011C446.21 334.491 445.768 334.869 445.246 335.097C444.725 335.325 444.147 335.392 443.587 335.29C443.027 335.187 442.511 334.921 442.103 334.523C441.696 334.126 441.416 333.616 441.299 333.059C441.183 332.502 441.235 331.923 441.45 331.396C441.664 330.869 442.031 330.417 442.503 330.1C442.975 329.782 443.531 329.612 444.1 329.612C444.471 329.607 444.84 329.675 445.184 329.813C445.529 329.951 445.843 330.155 446.109 330.414C446.375 330.673 446.587 330.982 446.733 331.323C446.88 331.664 446.957 332.031 446.962 332.402Z" fill="white"/>
<path d="M442.444 333.968C442.659 334.189 442.917 334.365 443.201 334.486C443.486 334.606 443.791 334.669 444.1 334.67C444.4 334.672 444.698 334.616 444.976 334.503C445.254 334.39 445.508 334.224 445.722 334.013C445.936 333.803 446.106 333.552 446.223 333.275C446.34 332.999 446.402 332.702 446.404 332.402C446.394 331.868 446.189 331.356 445.828 330.962C444.637 331.891 443.507 332.895 442.444 333.968Z" fill="#263238"/>
<path d="M458.176 332.402C458.191 332.971 458.035 333.531 457.729 334.011C457.424 334.491 456.982 334.869 456.46 335.097C455.939 335.325 455.361 335.392 454.801 335.29C454.242 335.187 453.725 334.921 453.317 334.523C452.91 334.126 452.63 333.616 452.514 333.059C452.397 332.502 452.45 331.923 452.664 331.396C452.878 330.869 453.245 330.417 453.717 330.1C454.189 329.782 454.745 329.612 455.314 329.612C455.685 329.607 456.054 329.675 456.399 329.813C456.743 329.951 457.058 330.155 457.323 330.414C457.589 330.673 457.801 330.982 457.948 331.323C458.094 331.664 458.172 332.031 458.176 332.402Z" fill="white"/>
<path d="M453.676 333.968C453.887 334.19 454.141 334.367 454.423 334.488C454.705 334.609 455.008 334.671 455.314 334.67C455.615 334.672 455.912 334.616 456.191 334.503C456.469 334.39 456.722 334.224 456.936 334.013C457.15 333.803 457.32 333.552 457.438 333.275C457.555 332.999 457.616 332.702 457.618 332.402C457.608 331.868 457.403 331.356 457.042 330.962C455.853 331.886 454.729 332.89 453.676 333.968Z" fill="#263238"/>
<path d="M469.409 332.402C469.427 332.975 469.273 333.54 468.968 334.026C468.662 334.511 468.219 334.894 467.695 335.126C467.17 335.358 466.589 335.428 466.024 335.327C465.46 335.226 464.938 334.959 464.526 334.56C464.114 334.161 463.831 333.649 463.712 333.088C463.594 332.527 463.645 331.943 463.86 331.412C464.075 330.88 464.444 330.425 464.92 330.104C465.395 329.784 465.955 329.612 466.529 329.612C467.28 329.602 468.004 329.89 468.544 330.413C469.084 330.936 469.395 331.651 469.409 332.402Z" fill="white"/>
<path d="M464.891 333.968C465.101 334.19 465.355 334.367 465.637 334.488C465.919 334.609 466.222 334.671 466.529 334.67C466.829 334.672 467.127 334.616 467.405 334.503C467.683 334.39 467.936 334.224 468.15 334.013C468.364 333.803 468.535 333.552 468.652 333.275C468.769 332.999 468.83 332.702 468.833 332.402C468.822 331.868 468.617 331.356 468.257 330.962C467.071 331.891 465.947 332.895 464.891 333.968Z" fill="#263238"/>
<path d="M480.623 332.402C480.641 332.976 480.487 333.542 480.181 334.028C479.875 334.513 479.43 334.897 478.905 335.128C478.379 335.359 477.797 335.428 477.232 335.326C476.667 335.224 476.145 334.955 475.734 334.554C475.323 334.153 475.041 333.639 474.924 333.077C474.808 332.514 474.862 331.93 475.08 331.399C475.298 330.868 475.669 330.414 476.147 330.095C476.625 329.777 477.187 329.609 477.761 329.612C478.132 329.607 478.501 329.675 478.845 329.813C479.19 329.951 479.504 330.155 479.77 330.414C480.036 330.673 480.248 330.982 480.394 331.323C480.541 331.664 480.618 332.031 480.623 332.402Z" fill="white"/>
<path d="M476.105 333.968C476.419 334.298 476.825 334.527 477.271 334.625C477.716 334.723 478.181 334.685 478.605 334.517C479.029 334.348 479.393 334.057 479.65 333.68C479.907 333.303 480.045 332.858 480.047 332.402C480.045 331.866 479.839 331.351 479.471 330.962C478.286 331.891 477.161 332.895 476.105 333.968Z" fill="#263238"/>
<path d="M491.837 332.402C491.852 332.971 491.696 333.531 491.39 334.011C491.085 334.491 490.643 334.869 490.121 335.097C489.6 335.325 489.022 335.392 488.462 335.29C487.902 335.187 487.386 334.921 486.978 334.523C486.571 334.126 486.291 333.616 486.175 333.059C486.058 332.502 486.11 331.923 486.325 331.396C486.539 330.869 486.906 330.417 487.378 330.1C487.85 329.782 488.406 329.612 488.975 329.612C489.346 329.607 489.715 329.675 490.06 329.813C490.404 329.951 490.718 330.155 490.984 330.414C491.25 330.673 491.462 330.982 491.608 331.323C491.755 331.664 491.833 332.031 491.837 332.402Z" fill="white"/>
<path d="M487.319 333.968C487.636 334.296 488.043 334.522 488.489 334.618C488.935 334.715 489.399 334.677 489.823 334.509C490.247 334.341 490.612 334.052 490.871 333.676C491.13 333.301 491.272 332.858 491.279 332.402C491.269 331.868 491.064 331.356 490.703 330.962C489.508 331.886 488.378 332.89 487.319 333.968Z" fill="#263238"/>
<path d="M503.052 332.402C503.066 332.971 502.91 333.531 502.605 334.011C502.299 334.491 501.857 334.869 501.336 335.097C500.814 335.325 500.237 335.392 499.677 335.29C499.117 335.187 498.6 334.921 498.193 334.523C497.785 334.126 497.505 333.616 497.389 333.059C497.272 332.502 497.325 331.923 497.539 331.396C497.754 330.869 498.12 330.417 498.592 330.1C499.064 329.782 499.62 329.612 500.19 329.612C500.561 329.607 500.929 329.675 501.274 329.813C501.619 329.951 501.933 330.155 502.198 330.414C502.464 330.673 502.676 330.982 502.823 331.323C502.969 331.664 503.047 332.031 503.052 332.402Z" fill="white"/>
<path d="M498.479 333.968C498.695 334.189 498.952 334.365 499.237 334.486C499.521 334.606 499.827 334.669 500.136 334.67C500.436 334.672 500.733 334.616 501.012 334.503C501.29 334.39 501.543 334.224 501.757 334.013C501.971 333.803 502.142 333.552 502.259 333.275C502.376 332.999 502.437 332.702 502.44 332.402C502.429 331.868 502.224 331.356 501.864 330.962C500.673 331.891 499.542 332.895 498.479 333.968Z" fill="#263238"/>
<path d="M514.266 332.402C514.28 332.971 514.125 333.531 513.819 334.011C513.513 334.491 513.071 334.869 512.55 335.097C512.028 335.325 511.451 335.392 510.891 335.29C510.331 335.187 509.814 334.921 509.407 334.523C508.999 334.126 508.72 333.616 508.603 333.059C508.487 332.502 508.539 331.923 508.753 331.396C508.968 330.869 509.334 330.417 509.807 330.1C510.279 329.782 510.835 329.612 511.404 329.612C511.775 329.607 512.143 329.675 512.488 329.813C512.833 329.951 513.147 330.155 513.413 330.414C513.679 330.673 513.891 330.982 514.037 331.323C514.183 331.664 514.261 332.031 514.266 332.402Z" fill="white"/>
<path d="M509.766 333.968C509.977 334.19 510.231 334.367 510.512 334.488C510.794 334.609 511.097 334.671 511.404 334.67C511.704 334.672 512.002 334.616 512.28 334.503C512.558 334.39 512.812 334.224 513.026 334.013C513.24 333.803 513.41 333.552 513.527 333.275C513.644 332.999 513.706 332.702 513.708 332.402C513.697 331.868 513.493 331.356 513.132 330.962C511.943 331.886 510.818 332.89 509.766 333.968Z" fill="#263238"/>
<path d="M525.48 332.402C525.498 332.975 525.345 333.54 525.039 334.026C524.734 334.511 524.291 334.894 523.766 335.126C523.242 335.358 522.66 335.428 522.095 335.327C521.531 335.226 521.009 334.959 520.598 334.56C520.186 334.161 519.902 333.649 519.784 333.088C519.665 332.527 519.717 331.943 519.932 331.412C520.147 330.88 520.516 330.425 520.991 330.104C521.467 329.784 522.027 329.612 522.6 329.612C523.351 329.602 524.076 329.89 524.616 330.413C525.155 330.936 525.466 331.651 525.48 332.402Z" fill="white"/>
<path d="M520.98 333.968C521.191 334.19 521.445 334.367 521.727 334.488C522.008 334.609 522.312 334.671 522.618 334.67C522.918 334.672 523.216 334.616 523.494 334.503C523.773 334.39 524.026 334.224 524.24 334.013C524.454 333.803 524.624 333.552 524.741 333.275C524.858 332.999 524.92 332.702 524.922 332.402C524.912 331.868 524.707 331.356 524.346 330.962C523.161 331.891 522.037 332.895 520.98 333.968Z" fill="#263238"/>
<path d="M536.712 332.402C536.727 332.971 536.571 333.531 536.266 334.011C535.96 334.491 535.518 334.869 534.996 335.097C534.475 335.325 533.897 335.392 533.338 335.29C532.778 335.187 532.261 334.921 531.853 334.523C531.446 334.126 531.166 333.616 531.05 333.059C530.933 332.502 530.986 331.923 531.2 331.396C531.414 330.869 531.781 330.417 532.253 330.1C532.725 329.782 533.281 329.612 533.85 329.612C534.222 329.607 534.59 329.675 534.935 329.813C535.279 329.951 535.594 330.155 535.859 330.414C536.125 330.673 536.337 330.982 536.484 331.323C536.63 331.664 536.708 332.031 536.712 332.402Z" fill="white"/>
<path d="M532.194 333.968C532.509 334.298 532.915 334.527 533.36 334.625C533.806 334.723 534.271 334.685 534.694 334.517C535.118 334.348 535.482 334.057 535.739 333.68C535.996 333.303 536.135 332.858 536.137 332.402C536.135 331.866 535.929 331.351 535.56 330.962C534.375 331.891 533.251 332.895 532.194 333.968Z" fill="#263238"/>
<path d="M547.927 332.402C547.941 332.971 547.786 333.531 547.48 334.011C547.174 334.491 546.732 334.869 546.211 335.097C545.689 335.325 545.112 335.392 544.552 335.29C543.992 335.187 543.475 334.921 543.068 334.523C542.66 334.126 542.381 333.616 542.264 333.059C542.148 332.502 542.2 331.923 542.414 331.396C542.629 330.869 542.995 330.417 543.467 330.1C543.94 329.782 544.496 329.612 545.065 329.612C545.436 329.607 545.804 329.675 546.149 329.813C546.494 329.951 546.808 330.155 547.074 330.414C547.34 330.673 547.552 330.982 547.698 331.323C547.844 331.664 547.922 332.031 547.927 332.402Z" fill="white"/>
<path d="M543.481 333.968C543.798 334.296 544.205 334.522 544.65 334.618C545.096 334.715 545.56 334.677 545.984 334.509C546.408 334.341 546.773 334.052 547.032 333.676C547.292 333.301 547.434 332.858 547.441 332.402C547.43 331.868 547.226 331.356 546.865 330.962C545.674 331.891 544.544 332.895 543.481 333.968Z" fill="#263238"/>
<path d="M559.141 332.402C559.156 332.971 559 333.531 558.694 334.011C558.389 334.491 557.947 334.869 557.425 335.097C556.904 335.325 556.326 335.392 555.766 335.29C555.206 335.187 554.69 334.921 554.282 334.523C553.875 334.126 553.595 333.616 553.478 333.059C553.362 332.502 553.414 331.923 553.629 331.396C553.843 330.869 554.21 330.417 554.682 330.1C555.154 329.782 555.71 329.612 556.279 329.612C556.65 329.607 557.019 329.675 557.363 329.813C557.708 329.951 558.022 330.155 558.288 330.414C558.554 330.673 558.766 330.982 558.912 331.323C559.059 331.664 559.136 332.031 559.141 332.402Z" fill="white"/>
<path d="M554.623 333.968C554.838 334.189 555.096 334.365 555.38 334.486C555.665 334.606 555.97 334.669 556.279 334.67C556.579 334.672 556.877 334.616 557.155 334.503C557.434 334.39 557.687 334.224 557.901 334.013C558.115 333.803 558.285 333.552 558.402 333.275C558.519 332.999 558.581 332.702 558.583 332.402C558.573 331.868 558.368 331.356 558.007 330.962C556.816 331.891 555.686 332.895 554.623 333.968Z" fill="#263238"/>
<path d="M393.015 300.721H306.234C304.349 300.721 302.539 299.983 301.193 298.663C299.847 297.344 299.072 295.549 299.034 293.665V253.632C299.034 226.325 321.733 204.094 349.633 204.094C377.534 204.094 400.251 226.325 400.251 253.632V293.665C400.213 295.556 399.433 297.356 398.079 298.676C396.725 299.996 394.906 300.731 393.015 300.721ZM313.434 286.681H385.796V253.632C385.796 244.036 381.985 234.833 375.199 228.048C368.414 221.263 359.211 217.451 349.615 217.451C340.02 217.451 330.817 221.263 324.032 228.048C317.246 234.833 313.434 244.036 313.434 253.632V286.681Z" fill="white" stroke="#263238" stroke-width="0.474259" stroke-linecap="round" stroke-linejoin="round"/>
<path d="M404.139 281.425H293.652V372.831H404.139V281.425Z" fill="white" stroke="#263238" stroke-width="0.474259" stroke-linecap="round" stroke-linejoin="round"/>
<path d="M360.398 319.388C360.277 316.277 358.957 313.333 356.713 311.175C354.47 309.016 351.478 307.811 348.364 307.811C345.251 307.811 342.259 309.016 340.015 311.175C337.772 313.333 336.451 316.277 336.331 319.388C336.341 321.527 336.934 323.624 338.048 325.451C339.161 327.278 340.752 328.766 342.649 329.756L340.633 350.51H356.096L354.08 329.756C355.977 328.766 357.568 327.278 358.681 325.451C359.795 323.624 360.388 321.527 360.398 319.388Z" fill="#263238" stroke="#263238" stroke-width="0.474259" stroke-linecap="round" stroke-linejoin="round"/>
<path opacity="0.1" d="M598.382 688.092C645.604 688.092 683.885 679.63 683.885 669.191C683.885 658.753 645.604 650.291 598.382 650.291C551.161 650.291 512.88 658.753 512.88 669.191C512.88 679.63 551.161 688.092 598.382 688.092Z" fill="white"/>
<path d="M553.669 649.859C553.669 649.859 532.932 661.523 532.932 667.139C532.932 672.755 545.731 669.299 554.101 665.339C562.471 661.379 569.113 658.427 569.113 650.651C569.113 642.874 553.669 649.859 553.669 649.859Z" fill="white" stroke="#263238" stroke-width="0.474259" stroke-miterlimit="10"/>
<path d="M652.942 649.859C652.942 649.859 673.678 661.523 673.678 667.139C673.678 672.755 660.88 669.299 652.51 665.339C644.139 661.379 637.497 658.427 637.497 650.651C637.497 642.874 652.942 649.859 652.942 649.859Z" fill="white" stroke="#263238" stroke-width="0.474259" stroke-miterlimit="10"/>
<path d="M562.057 458.927L553.219 652.091C554.441 653.096 555.854 653.844 557.373 654.29C558.892 654.735 560.485 654.869 562.057 654.683C564.8 654.277 567.305 652.896 569.113 650.795L599.12 493.128H605.294L637.083 653.747C638.982 654.798 641.091 655.413 643.257 655.547C646.336 655.547 651.196 651.659 651.196 651.659L641.043 459.053L562.057 458.927Z" fill="#263238" stroke="#263238" stroke-width="0.474259" stroke-miterlimit="10"/>
<path d="M592.946 341.87L552.787 358.269L563.371 451.583H640.143L654.274 354.813L610.587 341.006L592.946 341.87Z" fill="white" stroke="#263238" stroke-width="0.474259" stroke-miterlimit="10"/>
<path d="M597.356 355.244L602.198 363.021L594.26 429.982L603.962 444.239L612.351 428.686L605.726 362.157L611.469 353.102L603.08 349.43L597.356 355.244Z" fill="#263238" stroke="#263238" stroke-width="0.474259" stroke-miterlimit="10"/>
<path d="M603.08 349.43L596.636 360.465L585.152 345.164L591.578 337.514L603.08 349.43Z" fill="white" stroke="#263238" stroke-width="0.474259" stroke-miterlimit="10"/>
<path d="M603.08 349.43L610.893 361.581L620.307 344.264L614.799 337.28L603.08 349.43Z" fill="white" stroke="#263238" stroke-width="0.474259" stroke-miterlimit="10"/>
<path d="M587.492 375.549H560.437V384.765L573.974 389.949L587.492 384.189V375.549Z" fill="white" stroke="#263238" stroke-width="0.474259" stroke-miterlimit="10"/>
<path d="M641.619 375.549H614.565V384.765L628.083 389.949L641.619 384.189V375.549Z" fill="white" stroke="#263238" stroke-width="0.474259" stroke-miterlimit="10"/>
<path d="M641.043 449.855H562.057V458.927H641.043V449.855Z" fill="#263238" stroke="#263238" stroke-width="0.474259" stroke-miterlimit="10"/>
<path d="M560.725 457.199L547.045 462.815C546.82 466.725 547.117 470.648 547.927 474.48C549.259 479.664 551.023 490.896 552.337 493.056C553.651 495.216 560.293 499.536 561.175 498.24C562.057 496.944 566.467 458.927 566.467 458.927L560.725 457.199Z" fill="#263238" stroke="#263238" stroke-width="0.474259" stroke-miterlimit="10"/>
<path d="M591.578 321.764V337.514L603.08 349.43L614.799 337.28V321.53L591.578 321.764Z" fill="white" stroke="#263238" stroke-width="0.474259" stroke-miterlimit="10"/>
<path d="M583.55 307.147C583.55 307.147 581.48 302.413 580.094 305.347C578.708 308.281 580.328 312.763 582.398 314.563C583.92 315.667 585.806 316.15 587.672 315.913L586.52 309.163L583.55 307.147Z" fill="white" stroke="#263238" stroke-width="0.474259" stroke-miterlimit="10"/>
<path d="M620.991 307.147C620.991 307.147 623.061 302.413 624.447 305.347C625.833 308.281 624.213 312.763 622.143 314.563C620.614 315.669 618.722 316.151 616.851 315.913L618.003 309.163L620.991 307.147Z" fill="white" stroke="#263238" stroke-width="0.474259" stroke-miterlimit="10"/>
<path d="M587.456 275.88C587.456 275.88 577.79 279.93 577.79 286.681C577.79 293.431 579.176 301.081 581.48 304.015C583.784 306.949 585.602 308.965 585.602 308.965L586.07 299.281L592.73 287.815C592.73 287.815 603.764 294.781 609.273 294.781C612.352 294.808 615.428 294.585 618.471 294.115L620.541 305.581L623.529 297.265V289.615C623.529 289.615 629.037 284.431 627.885 281.064C626.733 277.698 608.084 267.114 596.636 269.814C585.188 272.514 587.456 275.88 587.456 275.88Z" fill="#263238" stroke="#263238" stroke-width="0.474259" stroke-miterlimit="10"/>
<path d="M582.848 298.597C582.848 298.597 585.602 315.463 587.906 319.964C590.936 324.957 594.65 329.501 598.94 333.464C600.542 334.58 606.518 333.68 608.822 333.68C611.127 333.68 617.823 320.18 618.921 317.713C620.019 315.247 620.721 294.097 620.721 294.097L618.705 290.281C618.705 290.281 608.822 292.765 601.01 289.615C596.77 288.096 592.976 285.54 589.976 282.18C589.976 282.18 589.292 289.831 586.52 294.331C583.748 298.831 582.848 298.597 582.848 298.597Z" fill="white" stroke="#263238" stroke-width="0.474259" stroke-miterlimit="10"/>
<path d="M600.542 300.397C597.763 298.945 594.678 298.174 591.542 298.147C588.851 298.04 586.172 298.577 583.73 299.713C583.73 299.713 583.73 307.363 586.268 310.297C588.806 313.231 596.15 312.313 598.22 309.847C600.29 307.381 600.542 300.397 600.542 300.397Z" fill="#263238" stroke="#263238" stroke-width="0.474259" stroke-miterlimit="10"/>
<path d="M603.764 300.397C606.544 298.945 609.629 298.174 612.765 298.147C615.456 298.04 618.134 298.577 620.577 299.713C620.577 299.713 620.577 307.363 618.039 310.297C615.501 313.231 608.156 312.313 606.104 309.847C604.052 307.381 603.764 300.397 603.764 300.397Z" fill="#263238" stroke="#263238" stroke-width="0.474259" stroke-miterlimit="10"/>
<path d="M600.542 300.397H603.764" stroke="#263238" stroke-width="0.474259" stroke-miterlimit="10"/>
<path d="M553.219 442.943L567.781 442.511L578.816 452.447C578.798 453.718 578.333 454.942 577.502 455.903C576.17 457.199 572.642 456.335 572.642 456.335C572.642 456.335 569.995 462.815 565.135 462.815C560.275 462.815 547.135 453.815 547.135 453.815L553.219 442.943Z" fill="white" stroke="#263238" stroke-width="0.474259" stroke-miterlimit="10"/>
<path d="M552.787 358.269L503.808 422.638L547.045 453.743L553.219 442.943L539.989 417.454L558.079 401.038L552.787 358.269Z" fill="white" stroke="#263238" stroke-width="0.474259" stroke-miterlimit="10"/>
<path d="M549.691 435.599L542.203 448.991" stroke="#263238" stroke-width="0.474259" stroke-linecap="round" stroke-linejoin="round"/>
<path d="M539.989 417.454L534.246 402.766" stroke="#263238" stroke-width="0.474259" stroke-linecap="round" stroke-linejoin="round"/>
<path d="M654.274 442.943L639.711 442.511L628.677 452.447C628.7 453.72 629.172 454.944 630.009 455.903C631.323 457.199 634.851 456.335 634.851 456.335C634.851 456.335 637.497 462.815 642.357 462.815C647.218 462.815 660.448 453.815 660.448 453.815L654.274 442.943Z" fill="white" stroke="#263238" stroke-width="0.474259" stroke-miterlimit="10"/>
<path d="M654.274 354.812L703.685 422.638L660.448 453.743L654.274 442.943L667.504 417.454L646.768 400.606L654.274 354.812Z" fill="white" stroke="#263238" stroke-width="0.474259" stroke-miterlimit="10"/>
<path d="M657.802 435.599L665.29 448.991" stroke="#263238" stroke-width="0.474259" stroke-linecap="round" stroke-linejoin="round"/>
<path d="M667.504 417.454L673.246 402.766" stroke="#263238" stroke-width="0.474259" stroke-linecap="round" stroke-linejoin="round"/>
<path opacity="0.1" d="M97.9686 688.092C145.19 688.092 183.471 679.63 183.471 669.191C183.471 658.753 145.19 650.291 97.9686 650.291C50.747 650.291 12.4663 658.753 12.4663 669.191C12.4663 679.63 50.747 688.092 97.9686 688.092Z" fill="white"/>
<path d="M53.5434 649.859C53.5434 649.859 32.8069 661.523 32.8069 667.139C32.8069 672.755 45.6052 669.299 53.9934 665.339C62.3817 661.379 68.9878 658.427 68.9878 650.651C68.9878 642.874 53.5434 649.859 53.5434 649.859Z" fill="white" stroke="#263238" stroke-width="0.474259" stroke-miterlimit="10"/>
<path d="M152.87 649.859C152.87 649.859 173.607 661.523 173.607 667.139C173.607 672.755 160.826 669.299 152.438 665.339C144.05 661.379 137.426 658.427 137.426 650.651C137.426 642.874 152.87 649.859 152.87 649.859Z" fill="white" stroke="#263238" stroke-width="0.474259" stroke-miterlimit="10"/>
<path d="M61.9317 458.927L53.1114 652.091C54.3299 653.097 55.7398 653.845 57.2558 654.291C58.7719 654.736 60.3626 654.87 61.9317 654.683C64.6745 654.277 67.1794 652.896 68.9878 650.795L98.9947 493.128H105.169L136.94 653.819C138.839 654.87 140.948 655.485 143.114 655.619C146.21 655.619 151.052 651.731 151.052 651.731L140.9 459.125L61.9317 458.927Z" fill="#263238" stroke="#263238" stroke-width="0.474259" stroke-miterlimit="10"/>
<path d="M92.8205 341.87L52.6614 358.269L63.2457 451.583H140.036L154.148 354.813L110.461 341.006L92.8205 341.87Z" fill="white" stroke="#263238" stroke-width="0.474259" stroke-miterlimit="10"/>
<path d="M140.918 449.855H61.9317V458.927H140.918V449.855Z" fill="#263238" stroke="#263238" stroke-width="0.474259" stroke-miterlimit="10"/>
<path d="M60.5996 457.199L46.9192 462.815C46.6949 466.725 46.9915 470.648 47.8013 474.48C49.1333 479.664 50.8974 490.896 52.2294 493.056C53.5614 495.216 60.1676 499.536 61.0496 498.24C61.9317 496.944 66.3418 458.927 66.3418 458.927L60.5996 457.199Z" fill="#263238" stroke="#263238" stroke-width="0.474259" stroke-miterlimit="10"/>
<path d="M91.4705 321.764V337.514L102.955 349.43L114.673 337.28V321.53L91.4705 321.764Z" fill="white" stroke="#263238" stroke-width="0.474259" stroke-miterlimit="10"/>
<path d="M83.4242 307.147C83.4242 307.147 81.3542 302.413 79.9681 305.347C78.5821 308.281 80.2021 312.763 82.2722 314.563C83.8011 315.669 85.6929 316.151 87.5644 315.913L86.4123 309.163L83.4242 307.147Z" fill="white" stroke="#263238" stroke-width="0.474259" stroke-miterlimit="10"/>
<path d="M120.865 307.147C120.865 307.147 122.935 302.413 124.321 305.347C125.707 308.281 124.087 312.763 122.017 314.563C120.495 315.667 118.609 316.15 116.743 315.913L117.877 309.163L120.865 307.147Z" fill="white" stroke="#263238" stroke-width="0.474259" stroke-miterlimit="10"/>
<path d="M87.3303 275.88C87.3303 275.88 77.6821 279.93 77.6821 286.681C77.6821 293.431 79.0501 301.081 81.2822 304.015C83.5143 306.949 85.4223 308.965 85.4223 308.965L85.8723 299.281L92.5325 287.815C92.5325 287.815 103.567 294.781 109.075 294.781C112.154 294.808 115.23 294.585 118.273 294.115L120.343 305.581L123.331 297.265V289.615C123.331 289.615 128.839 284.431 127.687 281.064C126.535 277.698 107.887 267.114 96.4386 269.814C84.9903 272.514 87.3303 275.88 87.3303 275.88Z" fill="#263238" stroke="#263238" stroke-width="0.474259" stroke-miterlimit="10"/>
<path d="M82.6682 298.597C82.6682 298.597 85.4403 315.463 87.7264 319.964C90.7928 324.967 94.5431 329.517 98.8687 333.482C100.471 334.598 106.447 333.698 108.751 333.698C111.055 333.698 117.751 320.198 118.867 317.731C119.983 315.265 120.667 294.115 120.667 294.115L118.669 290.281C118.669 290.281 108.787 292.765 100.975 289.615C96.7341 288.096 92.9408 285.54 89.9404 282.18C89.9404 282.18 89.2564 289.831 86.5023 294.331C83.7483 298.831 82.6682 298.597 82.6682 298.597Z" fill="white" stroke="#263238" stroke-width="0.474259" stroke-miterlimit="10"/>
<path d="M100.417 300.397C97.6371 298.945 94.5524 298.174 91.4165 298.147C88.7249 298.04 86.0468 298.577 83.6042 299.713C83.6042 299.713 83.6043 307.363 86.1243 310.297C88.6444 313.231 96.0066 312.313 98.0766 309.847C100.147 307.381 100.417 300.397 100.417 300.397Z" fill="#263238" stroke="#263238" stroke-width="0.474259" stroke-miterlimit="10"/>
<path d="M103.639 300.397C106.418 298.945 109.503 298.174 112.639 298.147C115.331 298.04 118.009 298.577 120.451 299.713C120.451 299.713 120.451 307.363 117.913 310.297C115.375 313.231 108.049 312.313 105.979 309.847C103.909 307.381 103.639 300.397 103.639 300.397Z" fill="#263238" stroke="#263238" stroke-width="0.474259" stroke-miterlimit="10"/>
<path d="M100.417 300.397H103.639" stroke="#263238" stroke-width="0.474259" stroke-miterlimit="10"/>
<path d="M97.2306 355.244L102.073 363.021L94.1346 429.982L103.855 444.239L112.225 428.686L105.619 362.157L111.343 353.102L102.955 349.43L97.2306 355.244Z" fill="#263238" stroke="#263238" stroke-width="0.474259" stroke-miterlimit="10"/>
<path d="M102.955 349.43L96.5106 360.465L85.0263 345.164L91.4705 337.514L102.955 349.43Z" fill="white" stroke="#263238" stroke-width="0.474259" stroke-miterlimit="10"/>
<path d="M102.955 349.43L110.767 361.581L120.181 344.264L114.673 337.28L102.955 349.43Z" fill="white" stroke="#263238" stroke-width="0.474259" stroke-miterlimit="10"/>
<path d="M52.6614 358.269L3.68208 422.638L46.9193 453.743L53.1114 442.943L39.8631 417.454L57.9536 401.038L52.6614 358.269Z" fill="white" stroke="#263238" stroke-width="0.474259" stroke-miterlimit="10"/>
<path d="M53.1114 442.943L67.6558 442.511L78.6901 452.447C78.6724 453.718 78.2071 454.942 77.3761 455.903C76.044 457.199 72.516 456.335 72.516 456.335C72.516 456.335 69.8699 462.815 65.0098 462.815C60.1496 462.815 47.0093 453.815 47.0093 453.815L53.1114 442.943Z" fill="white" stroke="#263238" stroke-width="0.474259" stroke-miterlimit="10"/>
<path d="M49.5833 435.599L42.0771 448.991" stroke="#263238" stroke-width="0.474259" stroke-linecap="round" stroke-linejoin="round"/>
<path d="M39.8631 417.454L34.1389 402.766" stroke="#263238" stroke-width="0.474259" stroke-linecap="round" stroke-linejoin="round"/>
<path d="M154.148 354.812L203.56 422.638L160.322 453.743L154.148 442.943L167.379 417.454L146.642 400.606L154.148 354.812Z" fill="white" stroke="#263238" stroke-width="0.474259" stroke-miterlimit="10"/>
<path d="M154.148 442.943L139.586 442.511L128.551 452.447C128.574 453.72 129.046 454.944 129.883 455.903C131.198 457.199 134.726 456.335 134.726 456.335C134.726 456.335 137.372 462.815 142.232 462.815C147.092 462.815 160.232 453.815 160.232 453.815L154.148 442.943Z" fill="white" stroke="#263238" stroke-width="0.474259" stroke-miterlimit="10"/>
<path d="M157.676 435.599L165.182 448.991" stroke="#263238" stroke-width="0.474259" stroke-linecap="round" stroke-linejoin="round"/>
<path d="M167.379 417.454L173.121 402.766" stroke="#263238" stroke-width="0.474259" stroke-linecap="round" stroke-linejoin="round"/>
<path d="M87.3663 375.549H60.3116V384.765L73.848 389.949L87.3663 384.189V375.549Z" fill="white" stroke="#263238" stroke-width="0.474259" stroke-miterlimit="10"/>
<path d="M141.494 375.549H114.439V384.765L127.975 389.949L141.494 384.189V375.549Z" fill="white" stroke="#263238" stroke-width="0.474259" stroke-miterlimit="10"/>
</svg>
